<svg
      version="1.0"
      xmlns="http://www.w3.org/2000/svg"
      width="1200pt"
      height="1200pt"
      viewBox="0 0 431 579"
      preserveAspectRatio="xMidYMid meet"
    >
      <g fill="#fefcfc">
        <path d="M0 289.5 l0 -289.5 215.5 0 215.5 0 0 223.5 0 223.5 -2.4 0 c-1.5 0 -2.7 -0.7 -3 -1.8 -0.6 -1.8 -11.9 -7.2 -15 -7.2 -2.7 0 -7.6 -5.7 -7.6 -8.7 0 -4.7 1 -6.7 4.8 -9.6 3.1 -2.4 4.4 -2.7 9.2 -2.5 l5.5 0.3 0.5 5.5 c0.6 5.3 0.6 5.4 1.8 2.7 0.7 -1.6 1.2 -3.4 1.2 -4.1 0 -2.4 -4 -6.4 -7.4 -7.6 -5.8 -1.9 -15.6 3.8 -18.5 10.7 -2.9 7.1 2.4 13.6 14.3 17.3 l7.6 2.4 0 5.2 c0 5.7 -0.3 5.9 -9.5 8.3 -9.9 2.6 -24.2 0.2 -26.3 -4.4 -1.4 -3.1 -1.6 -10.8 -0.3 -15.3 0.8 -2.8 0.7 -3.4 -0.7 -3.8 -4.5 -1.4 -7.1 -3.5 -11 -9.4 -5.9 -8.8 -8 -10.9 -11.7 -11.6 -3.4 -0.6 -9.3 1.7 -10.8 4.2 -0.5 0.9 -2.6 1.4 -5.4 1.4 -3.4 0 -5 0.5 -6.4 2.2 -2.9 3.2 -2.4 4.8 1.4 4.8 1.8 0 3.8 0.5 4.4 1.1 0.8 0.8 1.7 0.3 3.3 -1.9 2.8 -3.8 8.6 -6.5 13.1 -6 l3.4 0.3 0.3 7.9 c0.4 10.4 -1 16.3 -5.3 23.1 -4.8 7.5 -10.5 11.5 -16.2 11.5 -4.4 0 -5.2 0.7 -3.1 2.8 3.3 3.3 13.6 -0.1 18.7 -6.1 1.4 -1.7 3.3 -3.8 4.3 -4.6 2.1 -2 6.3 -11.5 7.2 -16.4 l0.7 -3.8 4.7 0.3 4.7 0.3 0 8.5 c0 9.7 0.6 11.9 4.3 15.9 6.9 7.2 19.2 8.8 29.2 3.9 6.2 -3.1 9.3 -5.5 10.3 -8 0.4 -1.1 1.7 -1.8 3.2 -1.8 l2.5 0 0 63 0 63 -215.5 0 -215.5 0 0 -289.5z m305.4 240.3 c0.8 -3.2 -2.4 -9.9 -4.3 -9.4 -0.9 0.3 -2.8 0.8 -4.3 1.1 -1.5 0.4 -3.4 1.8 -4.3 3.1 -1.5 2.3 -1.4 2.4 0.5 2.4 1.1 0 2.3 0.7 2.6 1.5 0.4 0.8 1.7 1.5 3 1.5 1.3 0 2.4 0.5 2.4 1 0 2 3.8 1 4.4 -1.2z m-153.9 -34.5 c18.9 -6 28.3 -11.3 41.8 -23.5 5.2 -4.6 4.4 -5.8 -1.1 -1.8 -2.3 1.6 -4.6 3 -5.1 3 -0.5 0 -1.4 0.6 -2 1.4 -2 2.4 -21 11.2 -29.6 13.7 -7 2.1 -10 2.4 -23.5 2.3 -14 0 -16 -0.2 -20.3 -2.3 -4.3 -2 -10.6 -7.5 -15.8 -13.9 -4.6 -5.5 -6.2 -21.5 -3.4 -33.5 2.2 -9.6 11.6 -30.2 18.7 -41 2.1 -3.2 3.8 -6.2 3.8 -6.6 0 -0.4 0.8 -1.6 1.9 -2.7 1 -1.1 2.4 -3.1 3.1 -4.5 0.7 -1.3 1.9 -3.1 2.6 -3.9 3 -3.3 6 -7 7.9 -9.6 6.5 -9 17.5 -19.8 29 -28.6 13.4 -10.2 28 -17.8 34.4 -17.8 l4.1 0 0 37.1 0 37.2 6.1 -0.7 c3.4 -0.3 8.4 -0.6 11 -0.6 l4.9 0 0 -37 0 -37 3.5 0 c3.9 0 10.2 3 13.3 6.3 2.5 2.7 7.2 11.4 7.3 13.6 0 1.2 0.3 1.1 0.8 -0.4 1 -2.3 -1.6 -9.9 -5.1 -15.1 -2.6 -4 -11.3 -10.1 -17.2 -12.2 -6.8 -2.5 -18.8 -1.9 -28.1 1.2 -26.5 9 -52.1 29.4 -73.6 58.6 -17.9 24.3 -29.8 45.5 -35.4 63 -2.2 6.8 -2.6 9.7 -2.1 14.5 1.5 16.7 11.7 31.5 26.6 38.9 12.2 6 26.6 6.6 41.5 1.9z m-138.5 -30.2 c6.5 -11.3 18.3 -26.9 22.5 -29.7 1.4 -0.9 3.9 -1.4 6.2 -1.2 l3.8 0.3 0.3 5.6 c0.3 6.1 -2.3 15.4 -7.6 26.9 -2.1 4.6 -2.7 6.9 -2 7.8 0.6 0.6 1.4 1.2 1.8 1.2 0.5 0 3.3 -4 6.4 -8.8 5.3 -8.4 12.2 -16.5 16.1 -18.7 1.3 -0.8 0.6 -0.9 -2.9 -0.7 l-4.6 0.4 0 -6 c0 -6.8 -2.4 -11.4 -7.8 -14.5 -3.2 -1.9 -3.5 -1.9 -7.1 -0.2 -4 1.8 -14.1 10.7 -14.1 12.4 0 0.6 -0.6 1.4 -1.2 1.8 -1.7 1.1 -7.3 8.4 -8.1 10.6 -1 2.7 -7.5 2.4 -8.6 -0.5 -0.5 -1.4 -1 2.4 -1.4 10.7 -0.3 7.2 -0.3 13.3 0 13.8 0.8 1.4 2 -0.2 8.3 -11.2z m208 1.3 c9.3 -18.5 11.5 -21.8 21 -31.1 4.2 -4.1 4.8 -4.4 9.5 -4.1 l5 0.3 0.3 6.5 c0.3 7.2 -1.6 14.3 -7.3 26.5 -1.8 3.8 -3.1 7.3 -2.9 7.7 0.8 1.3 3.3 -0.3 4 -2.5 0.4 -1.2 1 -2.4 1.3 -2.7 0.4 -0.3 2.4 -3 4.6 -6 4.9 -7 6.2 -8 10.1 -8 3.3 0 3.4 0.1 4.8 6 0.8 3.2 3.3 6 7.4 8.3 4.1 2.3 7.6 2.4 12.6 0.2 4.2 -1.8 13.6 -10.1 13.6 -12 0 -0.7 0.6 -1.5 1.4 -1.8 0.8 -0.3 2.7 -4.2 4.3 -8.6 l2.8 -8.1 4.4 0 4.5 0 -4.1 -3 c-2.8 -2 -4.4 -4.1 -4.9 -6.2 -0.9 -4.5 -5 -10.3 -8.1 -11.7 -2.3 -1 -3.3 -0.9 -7.7 1.4 -10.4 5.4 -18.3 13.5 -23.9 24.7 -2.1 4.1 -2.5 4.3 -6.9 4.6 l-4.8 0.3 0 -4.5 c0 -6.4 -2.6 -12.2 -6.5 -14.6 -4 -2.5 -6.3 -2.5 -9.5 0 -1.4 1.1 -4.1 2 -6.2 2 -3.7 0 -3.8 -0.1 -3.8 -3.8 0 -3.5 0.3 -4 3.8 -5.5 19.7 -8.5 42.1 -27.1 53.7 -44.7 2.8 -4.1 5.2 -7.7 5.6 -8 1.7 -1.4 9.2 -21.3 10.1 -26.5 1.9 -12 -1.5 -24.2 -7.3 -26 -7.8 -2.5 -19.1 8.3 -36.6 35 -2.5 3.9 -5.3 8.1 -6.2 9.5 -0.9 1.4 -3 5.2 -4.6 8.5 -1.7 3.3 -3.2 6.2 -3.5 6.5 -1.3 1.1 -16 32.7 -16 34.1 0 0.6 -1.3 3.9 -3 7.4 l-3 6.4 -6 1.2 c-6.8 1.3 -7.9 2.9 -2 2.9 l4 0 0 4.8 c0 2.6 -0.4 5.2 -0.8 5.8 -1.1 1.2 -2.4 4.9 -5.7 15.9 -1.5 5 -3.5 11.5 -4.5 14.6 -1.3 4.2 -1.5 6 -0.7 6.8 2 2 3.1 0.7 7.7 -8.5z m104.6 -12.4 c0.9 -1.9 2.4 -5.1 3.5 -7.1 1 -2 1.9 -4.2 1.9 -4.8 0 -0.6 1.2 -3.6 2.6 -6.7 1.4 -3.1 2.3 -5.8 2.1 -6 -0.2 -0.3 -1.4 1.6 -2.6 4.1 -1.2 2.5 -2.8 4.5 -3.6 4.5 -1.1 0 -1.5 1.1 -1.5 3.8 0 2.1 -0.5 4.3 -1.1 4.9 -1.6 1.6 -5.8 11.7 -7.5 18.3 -2.8 10.2 -2.5 10.6 1.1 1.5 2 -4.9 4.3 -10.6 5.1 -12.5z m69.7 -53 c5.2 -2 15.7 -9.1 16.6 -11.3 0.2 -0.5 1.1 -1.7 2 -2.6 0.9 -0.9 2.9 -4.5 4.6 -8 2.5 -5.4 3 -7.5 2.9 -14.1 -0.1 -11.4 -4.5 -19.5 -14.4 -26.3 -7.2 -5.1 -13.3 -6.9 -26.1 -7.7 -9.6 -0.6 -12.1 -1.1 -15 -3 -5.3 -3.5 -6.9 -7 -6.9 -15.1 0 -13.5 5.9 -18.9 20.4 -18.9 9.6 0 14.5 2.2 17.7 8 l2.3 4 10.8 0 10.8 0 -3.1 -6.2 c-4.1 -8.1 -11.6 -15.9 -19.2 -20 -6.1 -3.2 -6.4 -3.3 -19.2 -3.3 l-13 0 -7.2 4.2 c-22.6 13.5 -27.9 38.1 -11.8 54.7 7.9 8.2 18.2 12.5 30 12.6 8.7 0 16.6 2.6 20.3 6.5 3 3.3 3.2 3.9 3.2 11 0 8.1 -1.2 11.5 -5.2 15.2 -3.3 3 -10.7 4.6 -18.8 4.1 -7.9 -0.6 -11.2 -2.3 -14.2 -7.4 l-2 -3.4 -10.5 0 c-9.6 0 -10.5 0.1 -9.8 1.8 0.4 0.9 1 2.6 1.3 3.7 1 3.8 8.2 12.5 13.5 16.2 2.8 2.1 7.7 4.6 10.7 5.5 3 1 6.2 2 7 2.2 3.1 1.1 16.9 -0.4 22.3 -2.4z m-335.6 0.2 c11.3 -3 19.6 -9.7 26.1 -21.2 l3.6 -6.5 0.4 -21.2 0.4 -21.1 -5.3 -0.7 c-3 -0.3 -11.9 -0.5 -19.9 -0.3 l-14.5 0.3 -0.3 9.7 -0.3 9.7 9.3 0.3 9.3 0.3 0 11 c0 9.7 -0.3 11.4 -2.3 14.6 -3.9 6.3 -6.4 7.4 -17.3 7.4 -8.6 0 -9.9 -0.2 -13.5 -2.6 -3.1 -2.1 -4.6 -4 -6.2 -8.4 -2.2 -5.6 -2.2 -6.6 -2.2 -59.8 0 -48.2 0.2 -54.6 1.7 -59.5 2.9 -9 10 -12.9 21.5 -11.9 7.8 0.7 11.7 3.2 15.3 9.7 2.8 5.3 2.9 6.1 3.3 20.8 l0.4 15.2 3.7 0 c2 0 6.7 -0.3 10.5 -0.7 l6.9 -0.6 -0.6 -16.6 -0.5 -16.6 -3.8 -6.9 c-4.7 -8.3 -13 -16 -21.1 -19.4 -4.9 -2.1 -7.5 -2.5 -16.3 -2.5 -9.4 -0.1 -11.1 0.2 -16.3 2.6 -11.6 5.3 -19.8 14.3 -23.6 25.8 -2.1 6.5 -2.2 7.5 -1.9 62.5 0.3 63.5 0.1 61.4 8.8 72.2 11.3 14 26.9 19 44.7 14.4z m259.3 -22.7 c0 -11.8 -0.2 -21.5 -0.5 -21.5 -0.2 0 -1.2 2.5 -2 5.5 -2 6.8 -7.9 17.5 -13.9 25.3 -3.2 4.2 -4.6 7 -4.6 9.1 l0 3.1 10.5 0 10.5 0 0 -21.5z m-204 -19.7 c0 -0.5 1 -1.8 2.2 -3 1.2 -1.2 4.1 -4.5 6.4 -7.4 l4.3 -5.2 0.3 -26.5 0.3 -26.5 2.5 -2.8 c3.7 -3.9 8.1 -5.4 16.3 -5.4 8.5 0 13.5 1.4 15.9 4.4 1 1.1 1.8 1.6 1.8 1 0 -0.5 3.2 -3.4 7 -6.3 3.9 -3 7 -5.7 7 -6 0 -1.7 -6 -6 -11.6 -8.4 -5 -2.2 -7.7 -2.7 -14.1 -2.7 -7 0 -8.7 0.4 -13.6 3 -3.1 1.7 -7 3 -8.7 3 -2.7 0 -3 -0.3 -3 -3 l0 -3 -11 0 -11 0 0 52.8 0.1 52.7 4.4 -5 c2.5 -2.7 4.5 -5.3 4.5 -5.7z m150.5 -35.3 l4 -5.8 0.4 -20.6 c0.1 -11.3 0 -32 -0.4 -45.8 l-0.7 -25.3 -10.4 0 c-9.9 0 -10.4 0.1 -10.9 2.3 -0.3 1.2 -0.4 21.6 -0.3 45.4 0.3 42.5 0.3 43.2 2.4 45.5 1.2 1.3 3.4 5.6 5 9.5 l2.8 7.3 2 -3.4 c1.2 -1.8 3.9 -6 6.1 -9.1z m53.5 -55 l0 -42.6 -10.7 0.3 -10.8 0.3 -0.3 38.8 -0.2 38.7 5.9 0 c6.7 0 12 1.9 13.9 4.9 0.7 1.2 1.4 2.1 1.7 2.1 0.3 0 0.5 -19.1 0.5 -42.5z m-107.7 32.5 l8.7 0 0 -17 0 -17 -11 0 -11 0 0 17.6 0 17.6 2.3 -0.6 c1.2 -0.3 6.1 -0.6 11 -0.6z m-60.4 -64.7 c2.5 -1.4 5.6 -3.9 6.9 -5.5 3.7 -4.3 7.7 -3.9 12.8 1.5 2.8 3 5.5 4.8 8.7 5.7 5.7 1.5 9.7 1 17.2 -2.4 l5.7 -2.7 -5.7 -3 c-3.1 -1.7 -7.8 -4.5 -10.4 -6.3 -7 -4.9 -12.5 -6.7 -16.2 -5.4 -1.9 0.7 -6.2 0.8 -11.1 0.4 -7.1 -0.6 -8.4 -0.4 -12.7 1.7 -2.6 1.3 -7.5 4.5 -10.8 7.1 -3.4 2.5 -6.9 4.6 -7.9 4.6 -3 0 0 2.3 6.4 4.7 7.6 2.9 11.6 2.9 17.1 -0.4z m-55.9 -20 c2.7 -1.9 14.9 -13.5 23.3 -22 3.8 -3.9 5.9 -5.3 7.9 -5.3 2.8 0 2.8 0 2.8 -6.7 l0 -6.8 -14.3 14.5 c-7.8 8 -16.3 17 -18.9 20 -6.2 7.1 -6.5 10.3 -0.8 6.3z m133.5 0.7 c0.6 -1 -3.6 -5.6 -24.7 -27.5 l-8.8 -9 0 5.7 c0 5.7 0.1 5.8 3.8 7.7 2.1 1.1 6.3 4.4 9.3 7.4 7.5 7.5 18 16.7 19 16.7 0.4 0 1.1 -0.5 1.4 -1z m-17.7 -49.4 c-0.1 -0.2 -4.2 -0.6 -9 -0.9 -6.2 -0.3 -8.8 -0.1 -8.8 0.7 0 0.8 2.8 1 9.1 0.8 5 -0.2 8.9 -0.5 8.7 -0.6z m-113.1 -42.8 c-0.2 -1.3 -0.4 -0.5 -0.4 1.7 -0.1 2.2 0.1 3.2 0.4 2.3 0.2 -1 0.2 -2.8 0 -4z m4.2 -15.7 c0.9 -1.6 0.8 -1.8 -0.8 -1.4 -1.2 0.3 -1.7 1.1 -1.4 1.9 0.7 1.8 1 1.8 2.2 -0.5z m118.1 0.6 c0 -0.7 -1 -1.7 -2.2 -2.2 -1.3 -0.6 -2.4 -2 -2.6 -3.2 -0.3 -1.9 -1 -2.3 -3.6 -2.3 -4.1 0 -5.6 -1.5 -5.6 -5.7 0 -2.7 -0.4 -3.3 -2.1 -3.3 -1.2 0 -2.3 -0.8 -2.6 -2 -0.3 -1.3 -1.4 -2 -2.9 -2 -2.1 0 -2.3 0.3 -1.4 2.6 0.6 1.4 1 4.1 1 6 0 3.3 0.1 3.4 3.8 3.4 3.7 0 11.4 4.1 15.6 8.3 2.1 2 2.6 2.1 2.6 0.4z m-114 -5.2 c1 -1.2 1 -1.5 -0.4 -1.5 -0.9 0 -1.6 0.7 -1.6 1.5 0 0.8 0.2 1.5 0.4 1.5 0.2 0 0.9 -0.7 1.6 -1.5z m9.2 -8 c-0.6 -4.8 -2.2 -4.4 -2.2 0.5 0 2.8 0.4 3.8 1.3 3.4 0.8 -0.3 1.1 -1.7 0.9 -3.9z m65.8 -14.5 c2.4 -0.8 2.4 -0.8 -0.7 -0.9 -1.7 -0.1 -3.5 0.4 -3.8 0.9 -0.7 1.1 0.9 1.1 4.5 0z" />
        <path d="M276.9 459.3 c-0.6 -1.6 -0.9 -5.5 -0.5 -9 1.2 -13.8 14.5 -29.3 25.1 -29.3 4.2 0 4.3 0.1 5.5 4.5 1.7 6.2 0.5 14.7 -3.1 22 -5.6 11.2 -10.1 14.5 -19.9 14.5 -5.7 0 -6.1 -0.2 -7.1 -2.7z" />
        <path d="M243 406.6 c0 -2.6 0.6 -4.8 1.5 -5.6 0.8 -0.7 1.5 -1.7 1.5 -2.3 0 -1.5 7.3 -16.1 8.2 -16.5 0.4 -0.2 0.8 -1 0.8 -1.8 0 -1.3 1 -3.2 5.8 -10.9 0.7 -1.1 2 -3.6 3 -5.5 1 -1.9 4 -6.8 6.7 -10.9 2.8 -4 5.5 -8.2 6.1 -9.3 0.6 -1 2.3 -3.2 3.8 -4.7 1.4 -1.5 2.6 -3 2.6 -3.4 0 -0.7 2 -3.1 6.8 -7.9 2.2 -2.3 3.6 -2.8 7.6 -2.8 l4.9 0 -0.6 10.3 c-0.5 11.1 -3 19.7 -8.6 29.7 -1.7 3 -3.4 6.2 -3.8 7 -1.5 3.2 -12 16.7 -16.4 21 -13.7 13.4 -20.3 18 -26 18 l-3.9 0 0 -4.4z" />
      </g>
      <g fill="#d7d8d9">
        <path d="M311 492.5 c0 -2.5 0.8 -4.4 2.9 -6.5 3.5 -3.7 4.4 -3.8 3.1 -0.4 -1.3 3.2 -1.2 3.7 0 2.9 1.3 -0.8 1.3 0.1 -0.2 4.2 -0.9 2.4 -1.8 3.3 -3.5 3.3 -2 0 -2.3 -0.5 -2.3 -3.5z" />
        <path d="M128 340.5 c0 -3.7 2.4 -5 3.2 -1.7 0.6 2.7 -0.2 5.2 -1.8 5.2 -0.9 0 -1.4 -1.1 -1.4 -3.5z" />
      </g>
      <g fill="#eb9a3e">
        <path d="M293.6 560.8 c0.8 -2.4 3.3 -8.9 5.6 -14.6 2.2 -5.7 3.8 -10.5 3.5 -10.9 -1.6 -1.5 -3.7 1.3 -7.2 9.6 -2.1 5.1 -4.3 9.4 -4.8 9.8 -0.6 0.4 -0.8 -0.2 -0.5 -1.3 0.9 -2.8 4.8 -12.4 6.4 -15.7 1.7 -3.5 1.8 -4.7 0.2 -4.7 -1.5 0 -8.2 12.8 -11.8 22.4 -0.6 1.6 -1.2 2.7 -1.5 2.5 -0.3 -0.4 1.9 -7.3 4.4 -13.4 4.3 -10.4 5.1 -13.6 3.6 -14.1 -1.1 -0.4 -2.7 2.5 -12 22.9 -1 2.1 -2 3.6 -2.2 3.3 -0.5 -0.4 3.8 -13.5 6.2 -19.1 0.7 -1.6 2 -5.4 3 -8.4 2.4 -7.7 4 -9.7 8.9 -11 2.3 -0.6 4.9 -1.8 5.8 -2.8 2.2 -2.6 8.2 -22.7 12.3 -41.3 3.2 -14.7 7.3 -26.7 10.5 -30.5 1.7 -2 1 -2.6 -3.7 -3.1 l-3.8 -0.4 -2.8 8.1 c-1.6 4.4 -3.5 8.3 -4.3 8.6 -0.8 0.3 -1.4 1.1 -1.4 1.8 0 2.4 -10.5 11 -15.9 12.9 -9.9 3.5 -21.7 -1.2 -23.7 -9.4 -1.4 -5.7 -1.5 -6 -2.9 -5.3 -0.8 0.5 -3.3 3.5 -5.6 6.8 -2.4 3.3 -4.7 6.2 -5.1 6.3 -0.4 0.2 -0.8 1 -0.8 1.7 0 2.1 -4.1 5.5 -6.5 5.5 -2.4 0 -5.5 -2.9 -5.5 -5 0 -0.7 1.7 -5 3.9 -9.4 11 -22.9 10.5 -35.4 -0.9 -24.3 -9.5 9.3 -11.8 12.8 -21 31.2 -5.2 10.3 -7.8 12.2 -12.5 9.1 -2.5 -1.6 -2.7 -2.2 -2.2 -6 0.4 -2.2 2 -8.6 3.7 -14.1 1.7 -5.5 3.7 -12.1 4.5 -14.7 0.7 -2.5 2 -6.1 2.9 -7.9 2.5 -5 2.1 -5.9 -2.3 -5.9 -4.8 0 -6.9 -2.1 -5.3 -5.4 0.8 -1.8 2.4 -2.6 7.1 -3.5 l6.1 -1.2 3 -6.4 c1.7 -3.5 3 -6.8 3 -7.4 0 -1.4 14.7 -33 16 -34.1 0.3 -0.3 1.8 -3.2 3.5 -6.5 1.6 -3.3 3.7 -7.1 4.6 -8.5 0.9 -1.4 3.7 -5.6 6.2 -9.5 10.5 -16.1 14.3 -20.9 21.5 -27.9 7.9 -7.6 15.3 -10.1 21.1 -7.2 4.1 2.2 6.2 6.1 7.7 14.3 1.7 10.1 0 20.6 -5.7 33.8 -2.3 5.5 -4.5 10.2 -4.8 10.5 -0.4 0.3 -2.8 3.9 -5.6 8 -9.7 14.7 -27.3 30.6 -43 39 -8.2 4.4 -8.6 4.9 -3.2 4.8 9 -0.1 14.7 6.4 14.7 16.8 0 3.8 0.3 4.5 1.8 4.2 0.9 -0.2 2.7 -2.2 3.9 -4.6 3.4 -6.7 10.1 -15.4 14.7 -18.9 9.8 -7.4 17.3 -9.8 23 -7.2 3 1.4 7.1 7.3 8 11.6 0.5 2 2.1 4.2 4.4 5.9 2 1.6 3.9 3.2 4 3.6 0.8 1.9 3.3 0.5 5.1 -2.9 5.7 -11.2 6.6 -12.9 7.8 -14.1 0.7 -0.7 1.7 -2.1 2.2 -3 0.8 -1.4 1.3 -1.5 2.8 -0.4 3.4 2.3 4.6 2.5 5.7 1 0.6 -0.8 3.1 -2.5 5.5 -3.8 4.1 -2 4.9 -2.1 9.7 -1.1 5.7 1.3 7.4 2.8 13.6 12.1 2.4 3.6 5.6 7.1 7.3 7.9 1.7 0.8 3.7 1.7 4.5 2.1 1.7 0.9 1.7 3.5 -0.1 10.2 -1.8 7.1 -0.1 10.4 6.4 12.3 6 1.8 8.8 1.9 14.2 0.4 7.5 -1.9 9.5 -3 9.5 -5.3 0 -1.8 -1.2 -2.5 -7.5 -4.5 -8 -2.6 -12.2 -5.6 -14.9 -10.8 -2 -4 -2 -6.2 0.1 -11.5 2 -5 5.3 -8.2 11.1 -10.8 13.8 -6.3 26.1 3.8 20.1 16.5 -2.5 5.4 -4.2 6.9 -6.8 6 -2.6 -0.8 -3.5 -3.8 -2.1 -6.5 0.6 -1.2 1 -3.3 0.8 -4.8 -0.4 -3.9 -4.3 -4.1 -9 -0.5 -5 3.8 -5.4 6 -1.6 9.4 1.6 1.6 3.6 2.9 4.4 2.9 3.1 0 14.4 5.4 15 7.2 0.3 1 1 1.8 1.5 1.8 1.6 0 1.1 10.6 -0.6 12 -0.8 0.7 -1.5 1.7 -1.5 2.2 0 1.6 -4.1 4.7 -10 7.6 -4.8 2.4 -6.7 2.7 -15 2.7 -13.9 0 -20.7 -3.9 -24.5 -13.9 -1.5 -3.9 -1.6 -5.2 -0.5 -9.6 1.3 -5.5 0.9 -8 -1.4 -8 -0.9 0 -1.8 1.4 -2.2 3.7 -0.9 4.9 -5.1 14.4 -7.2 16.4 -1 0.8 -2.9 2.9 -4.4 4.7 -4.1 4.9 -10 7.5 -17 7.5 -4.8 -0.1 -6.4 -0.5 -8.4 -2.4 -2.7 -2.6 -3.2 -6.4 -0.8 -7.3 0.9 -0.3 3.3 -0.6 5.3 -0.6 7.3 0 17.7 -11 20.1 -21.3 1.2 -5.4 1.3 -14.4 0 -15.2 -1.9 -1.2 -8.6 3.5 -12 8.4 -1.9 2.8 -4.3 6.1 -5.2 7.2 -1 1.2 -1.8 2.8 -1.8 3.5 0 0.7 -0.6 1.7 -1.3 2.1 -0.7 0.4 -2.1 2.5 -3 4.5 -1.6 3.4 -3.7 5.8 -3.7 4.3 0 -0.3 0.8 -2.5 1.8 -4.8 4.1 -9.5 5.2 -12.3 5.4 -15.1 0.4 -3.5 -1.8 -4.6 -2.7 -1.4 -0.4 1.3 -1.8 4.7 -3.1 7.6 -1.3 2.9 -2.4 5.7 -2.4 6.3 0 0.6 -0.9 2.8 -1.9 4.8 -2.4 4.4 -3.8 7.6 -9.1 21.1 -2.3 5.8 -5.2 13.1 -6.5 16.2 -1.5 3.7 -1.9 5.8 -1.2 6.1 0.7 0.2 0.3 2.1 -1.2 5.3 -8.7 18.3 -8.7 18.6 -6.2 23.5 2.2 4.1 2.7 8.4 1.2 9.3 -0.5 0.3 -1.2 2.1 -1.5 3.9 -0.3 1.8 -2.2 6.2 -4.1 9.8 -1.9 3.5 -5.1 9.4 -7 13.2 -1.9 3.7 -3.7 6.7 -4 6.7 -0.2 0 0.3 -1.9 1.1 -4.2z m-3.4 -103.4 c8.7 -4.5 16.2 -20.8 13.6 -29.6 -0.6 -2.1 -1.6 -3.8 -2.3 -3.8 -1.8 0 -9.8 5.6 -12.6 8.7 -1.3 1.5 -3.8 5.3 -5.5 8.3 -5.7 10.1 -5.4 18 0.6 18 1.7 0 4.5 -0.7 6.2 -1.6z m-47.2 -32.4 l2.5 -2 -3.2 1.1 c-1.8 0.6 -3.3 1.5 -3.3 2 0 1.4 1.3 1 4 -1.1z m9.7 -20.2 c8.8 -5.9 19.8 -16.6 27.4 -26.8 3 -4.1 5.8 -8.2 6.2 -9 0.4 -0.8 2.1 -4 3.8 -7 4.6 -8.3 8 -18.7 8.6 -26.7 0.5 -6.7 0.4 -7.3 -1.3 -7.3 -1.7 0 -3.9 1.8 -9.3 7.8 -1.2 1.2 -2.1 2.5 -2.1 2.9 0 0.4 -1.2 1.9 -2.6 3.4 -1.5 1.5 -3.2 3.7 -3.8 4.7 -0.6 1.1 -3.3 5.3 -6.1 9.3 -2.7 4.1 -5.7 9 -6.7 10.9 -1 1.9 -2.3 4.4 -3 5.5 -4.8 7.7 -5.8 9.6 -5.8 10.9 0 0.8 -0.4 1.6 -0.8 1.8 -0.9 0.4 -8.2 15 -8.2 16.5 0 0.6 -0.7 1.6 -1.5 2.3 -1.7 1.4 -2 4 -0.6 4 0.6 0 3.2 -1.4 5.8 -3.2z" />
        <path d="M121 500.9 c-9.1 -1.2 -20.1 -6.8 -26.8 -13.8 -8.8 -9 -13.1 -19 -13.9 -32.3 -0.5 -7.6 -0.2 -9.8 2.2 -17.5 5.4 -17.5 17.3 -38.7 35.4 -63.3 21.5 -29.2 46.9 -49.4 73.6 -58.6 6.7 -2.3 9.7 -2.8 18.5 -2.8 12.4 0 16.5 1 24.4 6.2 6.6 4.4 10.8 10 13.3 17.9 1.5 4.7 1.5 6 0.3 10.6 -1.3 5.1 -3.8 10.2 -4.7 9.3 -0.2 -0.2 -1.1 -3.2 -1.9 -6.7 -2.3 -9.8 -6.8 -16.3 -13.6 -19.9 -4.7 -2.4 -4.8 -2.5 -4.8 -0.1 0 1.7 -0.4 1.8 -5.7 0.7 -6.1 -1.2 -18.3 -0.2 -18.3 1.5 0 0.5 -0.9 0.9 -2 0.9 -1.3 0 -2 -0.7 -2 -2 0 -1.1 -0.5 -2 -1.1 -2 -1.4 0 -15.9 7.1 -20.9 10.3 -13.4 8.4 -31.1 24.6 -39.5 36.1 -1.9 2.6 -4.9 6.3 -7.9 9.6 -0.7 0.8 -1.9 2.6 -2.6 3.9 -0.7 1.4 -2.1 3.4 -3.1 4.5 -1.1 1.1 -1.9 2.3 -1.9 2.7 0 0.4 -1.7 3.4 -3.8 6.6 -7.1 10.8 -16.5 31.4 -18.7 41 -1.9 8.2 -1.9 13.2 0.1 20 1.7 5.9 2.4 6.9 9.6 14.3 7.4 7.8 12 9.3 26.8 9.4 10.3 0.1 13.9 -0.3 20.5 -2.3 8.5 -2.5 27.6 -11.3 29.6 -13.7 0.6 -0.8 1.5 -1.4 2 -1.4 1.5 0 10.6 -6.6 16.1 -11.6 0.9 -0.9 2.9 -1.4 4.5 -1.2 2.1 0.2 2.9 0.9 3.1 2.8 0.2 2 -1.4 4.2 -7.5 10.5 -14.8 15.1 -24.4 21 -45.8 27.8 -9.1 2.9 -23.2 4 -33.5 2.6z" />
      </g>
      <g fill="#aa4a4d">
        <path d="M0.5 471.8 c0.8 -6.2 1.1 -6.8 3.1 -6.8 1 0 1.4 1.1 1.4 3.8 0 5.7 -1 8.2 -3.2 8.2 -1.8 0 -1.9 -0.4 -1.3 -5.2z" />
        <path d="M50 460.5 c0 -3.2 0.2 -3.5 3 -3.5 1.7 0 3 0.3 3 0.8 -0.1 0.9 -4.7 6.2 -5.5 6.2 -0.3 0 -0.5 -1.6 -0.5 -3.5z" />
        <path d="M68.3 435.4 c-0.7 -0.3 -1.3 -1.4 -1.3 -2.5 0 -1.5 0.7 -1.9 3.6 -1.9 3.1 0 3.5 0.3 3.2 2.3 -0.3 2.2 -2.9 3.2 -5.5 2.1z" />
        <path d="M34.8 404.8 c-2.7 -0.7 -3.8 -1.5 -3.8 -2.9 0 -1.5 0.7 -1.9 3.5 -1.9 1.9 0 3.5 0.3 3.5 0.8 0 0.4 4 0.6 9 0.4 l9 -0.3 0 2.5 0 2.6 -8.7 -0.1 c-4.9 -0.1 -10.5 -0.6 -12.5 -1.1z" />
        <path d="M135 286.5 c0 -4.5 1 -5.5 5.6 -5.5 3.7 0 4.4 0.3 4.4 2 0 1.1 -0.6 2 -1.3 2 -0.7 0 -2.9 0.9 -5 1.9 l-3.7 1.9 0 -2.3z" />
        <path d="M166.8 189.3 c-1 -0.2 -1.8 -1.3 -1.8 -2.4 0 -1.5 0.7 -1.9 3.3 -1.9 5.1 0 7.7 1.1 7.7 3.1 0 1.5 -0.7 1.9 -3.7 1.8 -2.1 -0.1 -4.6 -0.3 -5.5 -0.6z" />
        <path d="M156 159.6 c0 -1.3 1.2 -1.6 7.4 -1.6 4 0 8.8 -0.3 10.5 -0.6 2.4 -0.5 3.1 -0.3 3.1 1 0 1.3 -1.1 1.6 -5.9 1.6 -3.2 0 -7.9 0.3 -10.5 0.6 -3.8 0.6 -4.6 0.4 -4.6 -1z" />
        <path d="M117 100.1 c0 -3 0.1 -3.1 4.5 -3.1 3.8 0 4.5 0.3 4.5 2 0 1.3 -0.9 2.2 -2.7 2.6 -1.6 0.3 -3.6 0.8 -4.5 1.1 -1.4 0.3 -1.8 -0.2 -1.8 -2.6z" />
      </g>
      <g fill="#a12a34">
        <path d="M1.6 479.1 c-1.6 -1.8 -1.8 -5.4 -0.4 -7.7 0.4 -0.6 0.6 -6.4 0.4 -13 -0.1 -6.5 0 -12.5 0.2 -13.1 0.2 -0.7 1.5 -1.3 2.9 -1.3 1.8 0 2.8 0.9 3.9 3.5 1.3 3.2 3.4 4 3.4 1.4 0 -1.2 6 -9.1 7.8 -10.2 0.6 -0.4 1.2 -1.2 1.2 -1.8 0 -1.6 9.2 -9.9 13.2 -12 10.9 -5.6 21.8 1.6 21.8 14.4 0 3.1 0.2 5.7 0.5 5.7 0.2 0 2.2 -0.7 4.4 -1.6 3 -1.2 4.4 -1.3 6 -0.4 3 1.5 2.6 3.4 -1.4 6.7 -8.3 6.8 -12.4 11.4 -17.9 20.1 -6.3 10 -8.7 11.7 -13 8.8 -4 -2.6 -4 -4.8 -0.1 -13 4.1 -8.8 8.5 -21.6 8.5 -25.1 0 -3.2 -1.6 -4 -4.5 -2.1 -4.2 2.8 -16 18.3 -22.5 29.7 -7.5 13.1 -10.5 15.4 -14.4 11z" />
        <path d="M67.1 434.1 c-1.6 -1.6 -2 -2.8 -1.4 -4.8 0.8 -3.4 0.8 -4.2 -0.1 -7 -1.2 -3.7 1.8 -2.8 5.3 1.6 3.5 4.4 4.5 11.6 1.5 10.4 -0.9 -0.3 -2 0 -2.4 0.7 -0.6 0.9 -1.3 0.7 -2.9 -0.9z" />
        <path d="M4.4 431.6 c-0.8 -3.3 2.7 -11 6 -13.2 3.2 -2 4.5 -1.1 2.7 1.7 -0.8 1.4 -1 3.5 -0.6 5.9 0.9 5.2 -0.7 8 -4.5 8 -2.3 0 -3.1 -0.5 -3.6 -2.4z" />
        <path d="M370 406.4 c-0.8 -0.2 -4 -1.2 -7 -2.2 -10.9 -3.3 -21.3 -13.5 -25.2 -24.6 -3.2 -9 -3.7 -8.6 12.2 -8.6 l13.9 0 1.6 2.9 c3.4 6.6 11.3 9.4 20.3 7.1 7.9 -1.9 12.2 -7.4 12.2 -15.5 0 -3.7 -0.6 -5.1 -3.2 -8 -3.7 -3.9 -11.6 -6.5 -20.3 -6.5 -11.8 -0.1 -22.1 -4.4 -30 -12.6 -7 -7.1 -9.5 -13.8 -9.5 -25 0 -15.1 7.2 -27.3 21 -35.5 5.4 -3.2 8.3 -4.2 13 -4.6 5.3 -0.5 6 -0.4 6 1.2 0 1.5 0.2 1.6 1.7 0.4 1.1 -1 4.3 -1.4 10.2 -1.4 7.7 0.1 9.2 0.4 14.8 3.3 3.3 1.8 8.4 5.7 11.1 8.6 5.7 6 11.2 16.1 11.2 20.6 0 3 0 3 -5.5 3 -4.8 0 -5.5 -0.2 -5.5 -2 0 -1.1 0.7 -2 1.5 -2 1.7 0 2 -2.7 0.5 -5 -0.7 -1.2 -1.2 -1.2 -2.2 -0.2 -0.6 0.6 -2.9 1.2 -5 1.2 -3.8 0 -3.8 0 -3.8 4 0 4 0 4 -3.8 4 -3.4 0 -4.1 -0.4 -6.1 -4 -4.3 -7.7 -14.9 -10.3 -23.8 -5.8 -10.5 5.2 -11.2 19.3 -1.4 25.8 2.9 1.9 5.4 2.4 15 3 12.8 0.8 18.9 2.6 26.1 7.7 5.9 4.1 8.2 6.7 11.6 13.3 2.6 5 2.9 6.4 2.9 16.1 0 9.7 -0.3 11.2 -3 17 -1.6 3.5 -3.7 7.1 -4.6 8 -0.9 0.9 -1.8 2.1 -2 2.6 -0.2 0.5 -2.8 2.8 -5.6 5 -7.9 6.2 -14.8 8.4 -27.3 8.9 -5.8 0.2 -11.2 0.1 -12 -0.2z m19 -10.9 c0 -3.9 -0.3 -4 -9.5 -3.6 -6.9 0.3 -10.5 -1.2 -10.5 -4.4 0 -1.6 -0.6 -2.5 -1.5 -2.5 -0.8 0 -1.5 -0.4 -1.5 -1 0 -0.5 -1.3 -1.6 -3 -2.5 -3.2 -1.7 -13 -2.1 -13 -0.5 0 0.6 0.7 1 1.5 1 1.1 0 1.5 1.1 1.5 4.3 0 4.7 1.3 6.3 7.9 9.7 2.7 1.3 6 2 10.1 2 5.7 0 6 -0.1 6 -2.5 0 -2.2 0.4 -2.5 3.3 -2.5 3.7 0 5.7 1.5 5.7 4.2 0 1 0.7 1.8 1.5 1.8 1 0 1.5 -1.1 1.5 -3.5z m12 -4.5 c0 -3.6 -0.2 -4 -2.5 -4 -1.8 0 -2.5 -0.5 -2.5 -2 0 -1.1 -0.4 -2 -1 -2 -0.5 0 -1 1.7 -1 3.9 0 3 0.4 4 2 4.4 1.1 0.3 2 1.2 2 2.1 0 0.9 0.7 1.6 1.5 1.6 1.1 0 1.5 -1.1 1.5 -4z m16.6 -20.5 c0.6 -3.5 0.2 -14.1 -0.7 -14.9 -0.2 -0.2 -2.8 -0.6 -5.8 -1 -4.9 -0.6 -5.3 -0.6 -4.1 0.9 0.9 1.1 1.1 3.6 0.7 9.5 l-0.6 7.9 3.7 0.4 c2 0.2 4.2 0.4 4.9 0.5 0.7 0.1 1.5 -1.4 1.9 -3.3z m-18.1 -22.5 c1.6 0 2.4 -0.7 2.7 -2.4 0.3 -1.4 0.2 -2.9 -0.3 -3.3 -0.4 -0.4 -0.9 -1.9 -1.1 -3.2 -0.3 -2.7 -2.8 -4.2 -2.8 -1.7 0 2.5 -9 2.3 -9.1 -0.1 0 -1.5 -0.2 -1.5 -0.9 0.2 -1.7 4 -1.2 5.4 2.3 5.7 2.7 0.3 3.3 0.8 3.5 3.1 0.3 2.1 0.8 2.7 1.9 2.3 0.8 -0.3 2.5 -0.6 3.8 -0.6z m-23.2 -13 c-0.3 -1.1 -1.2 -2 -1.9 -2 -0.8 0 -1.4 0.9 -1.4 2 0 1.3 0.7 2 1.9 2 1.4 0 1.8 -0.5 1.4 -2z m-28.7 -10 c1.8 0 2.4 -0.5 2.4 -2.3 0 -1.2 1 -3.3 2.3 -4.7 1.9 -2 2.1 -2.8 1.3 -4.7 -0.6 -1.3 -1.9 -2.3 -3 -2.3 -1.6 0 -1.8 -0.7 -1.4 -6 0.4 -5.3 0.2 -6 -1.4 -6 -1.1 0 -1.8 -0.7 -1.8 -2 0 -1.3 -0.5 -1.8 -1.5 -1.4 -0.8 0.4 -1.5 1.2 -1.5 2 0 0.8 -0.4 1.4 -1 1.4 -0.5 0 -1 1.6 -1 3.5 0 1.9 -0.4 3.5 -1 3.5 -0.6 0 -1 2.8 -1 6.5 0 4.9 0.4 6.7 1.5 7.1 0.9 0.4 1.5 1.9 1.5 3.6 0 2.3 0.4 2.9 1.6 2.4 0.9 -0.3 2.7 -0.6 4 -0.6z m13 -29.4 c2.8 -1.9 3.6 -8.6 0.9 -8.6 -0.9 0 -1.5 -0.9 -1.5 -2.5 0 -2.5 -2.3 -3.5 -3.5 -1.5 -0.3 0.6 -0.1 1 0.5 1 0.9 0 1.1 2.3 0.7 8.3 -0.3 4.5 -0.4 7.4 -0.1 6.5 0.3 -0.9 1.6 -2.4 3 -3.2z m38.4 -2 c0 -2.5 0.5 -4.6 1.2 -4.8 1.7 -0.6 0 -2.8 -2.3 -2.8 -1 0 -1.9 -0.4 -1.9 -1 0 -0.6 -5.3 -1 -14 -1 -7.7 0 -14 0.4 -14 0.9 0 0.5 1.1 1.1 2.5 1.3 1.4 0.3 2.5 0.1 2.5 -0.3 0 -0.5 1.6 -0.9 3.5 -0.9 3.2 0 3.5 0.2 3.5 3 0 2 0.5 3 1.5 3 0.8 0 1.5 -0.9 1.5 -2 0 -1.8 0.7 -2 5.5 -2 l5.5 0 0 3.3 c0 5.1 1.1 7.7 3.1 7.7 1.6 0 1.9 -0.8 1.9 -4.4z" />
        <path d="M46.1 405.2 c-0.1 -0.9 -1.5 -1.1 -5.6 -0.6 -3 0.4 -5.5 0.3 -5.5 -0.2 0 -0.5 -1.6 -0.9 -3.4 -1 -7.7 -0.1 -22 -13.6 -26.1 -24.6 -1.9 -5 -2 -8.1 -2.3 -63.8 -0.2 -42.5 0 -59.7 0.9 -62.7 0.6 -2.4 1.4 -4.3 1.8 -4.3 0.3 0 0.7 -1.1 0.7 -2.5 0.4 -5.9 11.8 -17.5 22.1 -22.3 5.4 -2.5 6.6 -2.7 19.3 -2.6 12.1 0.1 14.1 0.3 19.3 2.6 12.8 5.5 23.7 19.2 25.1 31.7 0.7 5.7 0.6 6.1 -1.4 6.1 -1.3 0 -2 -0.7 -2 -2 0 -2.3 -2.5 -2.7 -3.4 -0.5 -0.3 0.9 -1.8 1.5 -4 1.5 -4.2 0 -5.7 -2.2 -5.6 -7.8 0.1 -2 -0.2 -6.1 -0.6 -8.9 -0.6 -4.8 -0.5 -5.3 1.2 -5.4 1.7 0 1.7 -0.1 -0.2 -0.9 -1.2 -0.4 -2.4 -1.6 -2.8 -2.6 -0.5 -1.3 -0.9 -1.5 -1.8 -0.6 -0.7 0.7 -3.4 1.2 -6 1.2 -3.6 0 -4.8 0.4 -4.8 1.5 0 1 1 1.5 3.1 1.5 3 0 3 0 2.9 5.3 -0.1 2.8 0.5 8.1 1.4 11.7 0.9 3.6 1.8 8.6 2.1 11.3 0.6 4.4 0.8 4.7 3.6 4.7 2.7 0 2.9 0.2 2.9 3.9 0 2.2 0.6 4.3 1.3 4.8 0.6 0.4 4.3 0.6 8 0.4 l6.8 -0.3 -0.3 4.9 -0.3 4.8 -13.1 0.3 -13.2 0.3 -0.4 -15.3 c-0.4 -14.2 -0.6 -15.7 -3.2 -20.6 -4.1 -8 -11.3 -11.4 -19.5 -9.2 -9.1 2.4 -13.1 10 -13.1 24.8 0 7.5 -0.2 8.2 -2 8.2 -1.1 0 -2 -0.7 -2 -1.5 0 -0.8 -0.7 -1.5 -1.6 -1.5 -1.5 0 -1.6 -1.1 -1 -9.6 0.8 -9.9 -0.6 -19.4 -2.8 -19.4 -0.6 0 -2.1 -0.3 -3.3 -0.6 -2.1 -0.6 -2.3 -0.3 -2.3 3 0 2 -0.5 3.6 -1 3.6 -0.6 0 -0.8 2.1 -0.4 5.6 0.6 5.1 0.5 5.6 -1.5 6.1 -3 0.8 -3.1 7.3 -0.1 7.3 2 0 2 0.7 2 44.5 0 43.8 0 44.5 -2 44.5 -1.1 0 -2 0.5 -2 1 0 0.6 0.8 1 1.9 1 2 0 3.1 3.4 3.1 10.1 0 2.2 0.5 3.9 1.1 3.9 0.8 0 1 1.8 0.7 5.4 -0.4 4.6 -0.2 5.5 1.3 5.9 1 0.3 2 0.2 2.3 -0.1 0.3 -0.3 0.6 -4.3 0.6 -8.8 0 -6.3 0.4 -8.6 1.6 -9.9 1.4 -1.4 1.5 -3 0.9 -10.6 -0.6 -7.7 -0.4 -8.9 0.9 -8.9 0.9 0 1.6 -0.7 1.6 -1.5 0 -0.8 0.9 -1.5 2 -1.5 1.9 0 2 0.7 2 8.9 0 17.8 5.8 25.6 18.9 25.6 7.6 -0.1 10.8 -1.7 14.3 -7.3 1.8 -3 2.2 -5.1 2.3 -11.7 l0 -8 -9.3 -0.3 -9.3 -0.3 0.3 -12.7 0.3 -12.7 21.3 -0.2 c11.7 -0.1 22 0.1 22.8 0.4 1.1 0.4 1.4 2.8 1.4 10.9 0 9.7 -0.1 10.4 -2 10.4 -1.8 0 -2 -0.7 -2 -5.5 l0 -5.5 -5 0 c-4.6 0 -5 -0.2 -5 -2.4 0 -3.2 -1.5 -3.6 -12.5 -3.6 -12 0 -15.5 0.7 -15.5 3.1 0 1.2 0.7 1.9 2 1.9 1.5 0 2 0.7 2 2.8 0 2.6 0.4 2.9 6 4.1 4 0.9 6 1.8 6 2.8 0 0.8 0.9 1.7 2 2 1.4 0.4 2 1.4 2 3.4 0 2.5 0.4 2.9 2.9 2.9 2.5 0 2.9 0.4 3.5 3.9 0.5 3.3 0.9 3.8 2.6 3.4 1.7 -0.5 2 -1.4 2 -6.4 l0 -5.9 4.5 0 4.5 0 0 6.5 c0 4.2 0.4 6.5 1.1 6.5 0.8 0 1 2.1 0.4 7.2 -1.1 11.7 -8.3 22.7 -19.4 29.7 -5.5 3.5 -19.3 7.1 -19.9 5.3 -0.5 -1.6 -5.9 -1.5 -6.5 0.1 -0.4 0.9 -0.6 0.9 -0.6 -0.1z m-9.5 -13.2 c2.4 0 3.4 0.5 3.4 1.5 0 0.8 0.6 1.5 1.3 1.5 0.6 0.1 5.7 0.3 11.2 0.5 5.5 0.2 9.4 0.1 8.8 -0.2 -0.7 -0.2 -1.3 -1.3 -1.3 -2.4 0 -1.8 -0.9 -1.9 -13 -1.9 l-13 0 0 -3.9 c0 -2.3 0.5 -4.1 1.3 -4.4 0.6 -0.2 -0.3 -0.6 -2 -0.9 l-3.3 -0.5 0 5.1 c0 2.8 -0.3 6.1 -0.6 7.3 -0.4 1.5 -0.1 2.2 1.3 2.5 1.3 0.2 1.9 -0.3 2.1 -1.9 0.3 -1.9 1 -2.3 3.8 -2.3z m34.6 -11.2 c4.1 -3.9 6.8 -8.8 6.8 -12.4 0 -1.9 -6.7 -1.8 -8.6 0 -0.8 0.8 -1.4 3.3 -1.4 5.5 0 3 -0.5 4.4 -2 5.3 -2.2 1.4 -2.7 5.8 -0.7 5.8 0.8 0 3.4 -1.9 5.9 -4.2z m-40.6 -145.5 c-1.4 -1.4 -2.3 0.9 -1.3 3.2 l1.2 2.5 0.3 -2.6 c0.2 -1.4 0.1 -2.8 -0.2 -3.1z m18.4 0.7 c0 -1.7 0.7 -2 4.5 -2 3.3 0 4.5 -0.4 4.5 -1.5 0 -1.2 -1.6 -1.5 -8.5 -1.5 -6.9 0 -8.5 0.3 -8.5 1.5 0 0.8 0.5 1.5 1 1.5 0.6 0 1 0.9 1 2 0 1.6 0.7 2 3 2 2.3 0 3 -0.4 3 -2z" />
        <path d="M195 366.8 c0 -20 0.4 -36.8 0.8 -37.4 1.3 -2.1 15.6 -3.7 21.7 -2.4 l5.5 1.1 0 7 0 6.9 -3.4 0 c-1.9 0 -3.7 -0.6 -3.9 -1.2 -0.3 -0.7 -0.6 0.6 -0.6 3 -0.1 3.9 0.1 4.2 2.5 4.2 l2.7 0 -0.8 20 c-0.7 19.9 -0.7 20 1.4 20 1.9 0 2.1 0.6 2.1 6.8 l0 6.9 -10.7 0.6 c-5.8 0.4 -12.1 0.7 -14 0.7 l-3.3 0 0 -36.2z m10 10.3 c0 -8.3 0.4 -14.2 1 -14.6 0.6 -0.3 1 -4.8 1 -10.1 0 -8.7 -0.1 -9.4 -2 -9.4 -1.5 0 -2 -0.7 -2 -2.7 0 -2.4 -0.2 -2.6 -1.5 -1.2 -1.3 1.3 -1.6 5.5 -1.7 25.5 -0.1 13.2 0.2 24.6 0.6 25.2 0.4 0.7 1.6 1.2 2.7 1.2 1.8 0 1.9 -0.8 1.9 -13.9z" />
        <path d="M295 397 c0 -5.8 0.3 -6.4 5.4 -13.3 9 -12.2 15.3 -26.7 17.1 -39.4 0.5 -4.3 1.1 -5.3 2.6 -5.3 1.8 0 1.9 1.2 1.9 32 l0 32 -13.5 0 -13.5 0 0 -6z" />
        <path d="M103 369.5 c0 -6.3 0.4 -10.5 1 -10.5 0.6 0 1 -1.1 1 -2.5 0 -2.1 0.5 -2.5 2.9 -2.5 2.3 0 3 -0.5 3.3 -2.2 0.2 -1.4 1.2 -2.4 2.8 -2.8 2.1 -0.5 2.2 -0.7 0.8 -1.3 -2 -0.7 -2.6 -7.1 -0.8 -8.2 0.6 -0.3 1 -4.1 1 -8.4 0 -4.2 0.4 -8.1 0.9 -8.7 0.5 -0.5 1.2 -5.3 1.6 -10.6 0.6 -8.5 0.5 -9.9 -0.9 -10.4 -1 -0.4 -1.6 -1.8 -1.6 -3.9 0 -2.5 0.5 -3.4 2.3 -4 l2.2 -0.8 -2.2 -0.4 c-2.1 -0.4 -2.3 -1 -2.3 -5.9 l0 -5.4 7.3 -0.1 c3.9 0 9 -0.6 11.2 -1.4 l4 -1.3 -5.2 -0.1 -5.3 -0.1 0 -3.4 c0 -3.6 -1.2 -4.6 -5.6 -4.6 -1.7 0 -2.4 0.6 -2.4 2 0 1.6 -0.7 2 -3.2 2 -6.3 0 -7.8 -0.9 -7.8 -4.5 0 -2.7 0.5 -3.4 2.3 -3.8 1.9 -0.4 1.8 -0.4 -0.5 -0.6 -2.7 -0.1 -2.8 0.1 -2.8 4.9 0 4.3 -0.3 5 -2 5 -1.8 0 -2 -0.7 -2 -7 l0 -7 14 0 14 0 0 3 0 3 5.6 -3 c5.3 -2.8 6.4 -3 16.7 -3 9.7 0 11.7 0.3 17.1 2.7 3.4 1.5 8.2 4.7 10.9 7.3 l4.8 4.7 -7.4 5.5 c-4.1 3.1 -8.7 6.8 -10.2 8.2 -3.5 3.2 -5 3.3 -7.8 0.2 -2.7 -2.8 -7.3 -4.3 -15.2 -4.8 l-6 -0.5 -4 4.5 -4 4.5 -0.3 26.4 -0.3 26.5 -4.3 5.2 c-2.3 2.9 -5 6.1 -6 7.2 -0.9 1 -4.1 5.1 -7.1 8.9 -3 3.9 -6.1 7.7 -7 8.6 -0.8 0.9 -1.5 2.1 -1.5 2.7 0 0.7 -0.4 1.2 -1 1.2 -0.6 0 -1 -4.2 -1 -10.5z m62 -91.9 c0 -1.9 0.5 -3.8 1 -4.1 1.5 -1 1.2 -4.5 -0.5 -4.5 -0.8 0 -2.6 0.5 -4 1.2 -1.9 0.9 -2.5 1.9 -2.5 4.5 0 2.6 -0.4 3.3 -2 3.3 -2.2 0 -2.7 1.5 -0.7 2.3 0.6 0.3 2.9 0.6 5 0.6 3.6 0.1 3.7 0 3.7 -3.3z m-27 -6.1 c0 -1.6 -0.6 -2.5 -1.5 -2.5 -0.8 0 -1.5 0.5 -1.5 1 0 0.6 0.5 1 1 1 0.6 0 1 0.7 1 1.5 0 0.8 0.2 1.5 0.5 1.5 0.3 0 0.5 -1.1 0.5 -2.5z" />
        <path d="M103 344 c0 -3.3 0.3 -4 2 -4 1.7 0 2 0.7 2 4 0 3.3 -0.3 4 -2 4 -1.7 0 -2 -0.7 -2 -4z" />
        <path d="M254 343 c0 -5.7 -4 -17.1 -7.3 -20.7 -1.1 -1.2 -1.7 -2.9 -1.4 -3.7 0.4 -0.9 0.2 -1.6 -0.3 -1.6 -1.1 0 -1.4 -87.8 -0.4 -91.7 0.6 -2.2 1 -2.3 12.6 -2.3 6.6 0 12.7 0.4 13.7 1 1.5 0.8 1.8 2 1.5 7.1 -0.2 3.7 -0.8 6.6 -1.6 7.1 -1 0.6 -1 1 -0.1 1.6 0.7 0.4 1.5 3.4 1.8 6.5 0.4 4.6 0.2 5.7 -1 5.7 -2.3 0 -2.2 43.5 0 44.4 1.3 0.5 1.6 2.5 1.4 12.1 l-0.1 11.5 -4.2 6.2 c-8.2 12.2 -9.5 14.4 -11 17.4 -2.4 5.3 -3.6 5.1 -3.6 -0.6z m5.4 -23.5 c0.4 -2.1 1.3 -3.5 2.1 -3.5 0.8 0 1.5 -0.4 1.5 -1 0 -0.5 -0.9 -1 -2 -1 -1.8 0 -2 -0.7 -2 -8.5 0 -7.9 0.2 -8.5 2 -8.5 2 0 2 -0.5 1.8 -29.7 l-0.3 -29.7 -2.5 -0.6 c-1.8 -0.4 -2.6 -1.4 -2.8 -3.3 -0.3 -2.1 -0.9 -2.7 -2.8 -2.7 -1.7 0 -2.4 0.5 -2.4 2 0 1.1 -0.4 2 -1 2 -1.1 0 -1.4 56.7 -0.4 69.3 0.6 6.7 0.9 7.6 2.8 7.9 1.8 0.3 2.1 1.1 2.4 5.6 0.4 6.1 2.6 7.2 3.6 1.7z" />
        <path d="M319 330.3 c0 -6.3 -2.2 -14.3 -5 -18 -2.8 -3.9 -8.4 -5.8 -15 -5 l-5 0.6 0.2 -42.2 0.3 -42.2 13.8 -0.3 13.7 -0.3 0 10.1 c0 9.3 -0.1 10 -2 10 -1.7 0 -2 -0.7 -2 -4 0 -3.9 -0.1 -4 -3.5 -4 -2.8 0 -3.5 -0.4 -3.5 -2 0 -1.6 -0.7 -2 -3.2 -2 l-3.3 0 0.3 28.5 c0.2 25 0.1 28.5 -1.3 28.5 -0.8 0 -1.5 0.7 -1.5 1.5 0 0.8 0.8 1.5 1.8 1.5 2.5 0 4.2 1.9 4.2 4.7 0 1.6 0.6 2.3 2 2.3 1.8 0 2 -0.7 2 -7.5 l0 -7.5 3.5 0 c2.4 0 3.5 0.5 3.5 1.5 0 0.8 0.7 1.5 1.5 1.5 1.1 0 1.5 1.1 1.5 4 0 3.1 -0.4 4 -1.7 4 -1.5 0 -1.5 0.1 0 1.8 2.4 2.6 2.6 39.2 0.2 39.2 -1.1 0 -1.5 -1.2 -1.5 -4.7z" />
        <path d="M26 316.5 c0 -13.8 0.1 -14.5 2 -14.5 1.9 0 2 0.7 2 14.5 0 13.8 -0.1 14.5 -2 14.5 -1.9 0 -2 -0.7 -2 -14.5z" />
        <path d="M103 307 l0 -24 3 0 3 0 0 23.4 c0 20.4 -0.2 23.5 -1.6 24 -4.4 1.7 -4.4 1.9 -4.4 -23.4z" />
        <path d="M195 284.4 l0 -20.4 14 0 14 0 0 20.3 0 20.2 -14 0.1 -14 0.1 0 -20.3z m19.8 6.6 c0.2 -1.2 -0.6 -1.5 -3.8 -1.2 l-4 0.4 0 -8.1 c0 -5.1 -0.4 -8.1 -1.1 -8.1 -0.6 0 -1.7 -0.6 -2.5 -1.4 -0.8 -0.8 -1.4 -1.9 -1.4 -2.5 0 -0.6 -0.7 -1.1 -1.5 -1.1 -1.1 0 -1.4 0.7 -1.1 2.3 1.2 5.7 1.6 19.7 0.7 19.7 -0.6 0 -1.1 0.5 -1.1 1 0 0.7 2.9 1 7.7 0.8 6 -0.2 7.8 -0.6 8.1 -1.8z m4.2 -11.5 c0 -3.4 -0.4 -4.4 -2 -4.8 -1.8 -0.5 -2 0 -2 4.8 0 4.8 0.2 5.3 2 4.8 1.6 -0.4 2 -1.4 2 -4.8z" />
        <path d="M82.8 278.3 c-1.3 -0.3 -1.8 -1.5 -1.8 -3.9 l0 -3.4 5 0 5 0 0 4 c0 3.9 -0.1 4 -3.2 3.9 -1.8 -0.1 -4.1 -0.3 -5 -0.6z" />
        <path d="M318 265 c0 -3.3 0.3 -4 2 -4 1.7 0 2 0.7 2 4 0 3.3 -0.3 4 -2 4 -1.7 0 -2 -0.7 -2 -4z" />
        <path d="M130.6 239.7 c-6.9 -2.5 -16.6 -11 -16.6 -14.4 0 -2 0.2 -2 2.9 0.8 4.4 4.3 8 3.9 15.4 -1.7 9.5 -7.3 15.3 -9.8 21.5 -9.5 9.8 0.4 12.7 0.4 16.9 -0.4 4.9 -0.9 11.4 1.2 18.3 6 13.5 9.3 17.3 10.3 21.3 5.6 1.4 -1.7 2.7 -2.7 3 -2.4 2.1 2 -7 11.6 -14.3 15.1 -11.5 5.4 -24.3 4 -31.5 -3.5 l-4.2 -4.4 -2.5 2.9 c-1.3 1.6 -4.4 4.1 -6.9 5.5 -5.9 3.5 -14.6 3.6 -23.3 0.4z m46.4 -8.7 c1.4 -1.4 2 -3.2 1.9 -5.7 -0.1 -2.1 -0.3 -3 -0.6 -2 -0.3 1.2 -1.4 1.7 -3.8 1.7 -2.9 0 -3.4 0.4 -3.7 2.8 -0.3 2.4 1.5 5.1 3.5 5.2 0.4 0 1.6 -0.9 2.7 -2z m-23 -4.4 c0 -0.8 -0.7 -1.6 -1.5 -2 -1 -0.4 -1.5 0.1 -1.5 1.4 0 1.1 0.7 2 1.5 2 0.8 0 1.5 -0.6 1.5 -1.4z m10 -2.6 c0 -1.1 0.5 -2 1 -2 0.6 0 1 -0.4 1 -1 0 -0.5 -0.9 -1 -2 -1 -1.6 0 -2 0.7 -2 3 0 1.7 0.5 3 1 3 0.6 0 1 -0.9 1 -2z" />
        <path d="M88.6 220.4 c-4.4 -4.3 -2 -7.7 23.9 -34.2 8.3 -8.4 15.1 -15.9 15.3 -16.6 0.2 -0.8 -1.6 -2.7 -3.8 -4.2 -13.9 -9.6 -24.3 -20.2 -28 -28.7 -3.1 -7 -3.3 -10.6 -1.1 -17.6 1.1 -3.6 1.8 -6.8 1.6 -7.1 -0.4 -0.6 -9.7 -7.1 -23.8 -16.6 -1.8 -1.2 -5.2 -3.9 -7.5 -6 l-4.4 -3.9 5.9 -7.5 c7.7 -9.7 26.5 -27 29.4 -27 1.3 0 4.5 3.8 9.7 11.5 2.5 3.8 4.9 7.2 5.2 7.5 0.3 0.3 1.7 2.1 3 4 1.3 1.9 2.7 3.7 3 4 0.3 0.3 1.7 2.6 3 5.3 l2.5 4.7 -2.2 3.9 c-1.2 2.1 -1.9 4.1 -1.6 4.5 0.4 0.3 3.1 0.6 6.2 0.7 3.1 0 7.9 0.5 10.6 1 11.9 2.4 11 2.5 17.3 -2.7 3.1 -2.6 6.8 -5.9 8.2 -7.2 1.4 -1.4 5.1 -4.2 8.2 -6.3 4.8 -3.3 6.5 -3.9 10.9 -3.9 3.9 0 6 0.6 8.3 2.3 1.7 1.3 3.9 2.6 4.9 3 0.9 0.3 1.7 1.1 1.7 1.7 0 2.4 3.2 0.7 4.5 -2.3 0.8 -1.9 2.1 -3.9 2.9 -4.7 0.9 -0.7 1.6 -1.8 1.6 -2.4 0 -0.6 3.1 -5.2 7 -10.1 3.8 -5 7.9 -10.2 9.1 -11.7 1.2 -1.6 2.5 -2.8 3.1 -2.8 1.8 0 11.5 8 18.3 15.1 8.8 9.3 16.5 18.4 16.5 19.7 0 1.9 -30.9 24.2 -33.6 24.2 -1.9 0 -1.8 2.4 0.1 4 0.8 0.7 1.5 1.6 1.5 2.1 0 0.5 1.1 2.6 2.3 4.7 3.8 5.9 5.3 15.9 3.9 24.4 -1.5 8.8 -7.6 19.9 -12.2 22.1 -0.8 0.4 -2.6 1.4 -4 2.2 -1.6 1 -5.4 1.5 -10.7 1.5 -8.2 0 -8.3 0 -8.3 2.5 0 2.4 4.1 7.4 15.1 18.6 17.2 17.4 19.9 20.7 19.9 24.3 0 2.9 -0.5 3.9 -2.6 4.8 -3.7 1.7 -7 -0.4 -19.4 -12.3 -11.7 -11.2 -15.8 -13.7 -28 -17 -4.7 -1.3 -8.7 -2.7 -8.8 -3.1 -0.2 -0.5 -0.7 -0.6 -1.2 -0.3 -0.4 0.3 -4.6 0.7 -9.2 1 -8.4 0.5 -19.4 2.6 -28 5.2 -5 1.5 -6.8 1.2 -6.8 -1.3 0 -2.4 -1.4 -1.6 -6.7 3.9 -10.4 10.6 -21.3 20.8 -24.5 22.7 -4 2.4 -6.1 2.5 -8.2 0.4z m55.7 -32.6 c13.8 -3.7 33.9 -2.9 46.2 1.8 3.3 1.3 1 -17.7 -2.9 -23.6 -2.3 -3.5 -4.9 -4.8 -13.1 -6.5 -3.6 -0.8 -1.9 -2.1 3.5 -2.7 1.9 -0.1 3.8 -0.7 4.2 -1.3 0.4 -0.5 1.6 0.2 2.7 1.7 2.6 3.2 8.1 5.5 15.7 6.3 15 1.7 24.2 -6.3 25.2 -22.3 0.9 -13.5 -5.7 -25.9 -18 -33.8 -6.8 -4.4 -7.8 -4.3 -7.8 0.4 0 5.1 -1 8.2 -2.5 8.2 -1 0 -1.5 -2.8 -2.1 -10.1 -1.1 -16.7 -5.6 -21.9 -16.7 -19.8 -3.8 0.7 -17.1 8.1 -19.7 10.9 -0.3 0.3 -2.7 2.1 -5.3 4 -2.7 1.9 -6.1 4.5 -7.6 5.7 -3.7 2.9 -13.9 8.3 -15.8 8.3 -2.3 0 -7 -2.8 -7.7 -4.6 -1 -2.7 1 -4 3.2 -2.1 2.7 2.4 6.7 2.1 12 -1 l4.6 -2.7 -3.5 -1.5 c-1.9 -0.8 -6.2 -1.5 -9.6 -1.5 -3.5 -0.1 -6.3 -0.4 -6.3 -0.8 0 -0.5 -0.7 -0.8 -1.5 -0.8 -0.8 0 -1.5 0.5 -1.5 1 0 0.6 -2.1 2 -4.7 3.1 -5.9 2.5 -7.8 4.2 -11.5 9.8 -3.9 6.2 -4 16.4 -0.3 24.5 3.9 8.5 15.6 19.8 26 25.1 1.8 1 2 2.2 2.3 12.5 0.1 6.3 0.4 12.1 0.7 12.8 0.6 1.7 2.4 1.5 11.8 -1z m-44.9 -83.4 c2.8 -1.1 1.8 -3 -4.1 -8.2 -3.2 -2.8 -6.5 -5.8 -7.3 -6.5 -5 -4.5 -13.3 -10.7 -14.4 -10.7 -1.6 0 -2.8 2.4 -2 4.4 0.3 0.7 3.5 3.8 7.2 6.7 3.6 3 7.3 6.1 8.2 6.9 2.9 2.9 9.5 8 10.1 8 0.4 0 1.4 -0.3 2.3 -0.6z m127.2 -2.5 c2.2 -1.7 4.6 -3.8 5.5 -4.7 0.9 -1 2.9 -2.6 4.4 -3.7 1.5 -1.1 5 -4 7.8 -6.6 4.5 -4.1 5 -4.9 3.8 -6.3 -0.7 -0.9 -1.8 -1.6 -2.4 -1.6 -1.3 0 -20.1 15.1 -24.5 19.7 -2.6 2.8 -3 3.8 -2.1 4.9 1.7 2.1 3.2 1.7 7.5 -1.7z m-116.6 -5.4 c0 -1.4 -15.8 -18 -23.6 -24.9 -4.3 -3.7 -7.4 -4 -7.4 -0.6 0 0.9 6.1 7.8 13.6 15.3 11.7 11.7 13.9 13.5 15.5 12.6 1.1 -0.5 1.9 -1.6 1.9 -2.4z m117.5 -11 c13.7 -13.5 15.5 -16.5 10.2 -16.5 -1.6 0 -6.1 3.9 -15.6 13.5 -11.4 11.4 -13.2 13.7 -12.1 15 0.7 0.8 1.8 1.5 2.6 1.5 0.7 0 7.4 -6.1 14.9 -13.5z m-112.5 2.1 c0 -2.2 -1.3 -4.2 -6 -9.5 -0.8 -0.9 -3.9 -4.6 -6.9 -8.1 -7 -8.4 -8.9 -10 -10.6 -9.3 -3 1.1 -1.2 5.3 5.3 12.3 1.8 1.9 5.6 6.5 8.5 10.2 3.6 4.7 5.9 6.7 7.5 6.8 1.7 0 2.2 -0.6 2.2 -2.4z m96.4 -1.3 c11.1 -12.3 18.6 -21.9 18.4 -23.2 -0.2 -0.9 -1.3 -1.7 -2.4 -1.9 -1.6 -0.2 -3.5 1.3 -7 5.5 -2.7 3.2 -5.4 6.3 -6 6.8 -3.3 3.1 -10.4 12.4 -10.4 13.7 0 4.1 3.2 3.7 7.4 -0.9z" />
        <path d="M142.5 159.2 c-2.8 -0.9 -7.1 -3.4 -9.5 -5.4 -5.4 -4.4 -11.8 -14.4 -10.3 -15.9 1.2 -1.2 1.4 -0.9 7.5 6.5 1.8 2.1 4.9 4.9 6.9 6.2 4.8 3 14.8 6.4 21.1 7.1 7.4 0.9 5.4 2.8 -3.3 3 -4.7 0.1 -9.2 -0.5 -12.4 -1.5z" />
        <path d="M185.2 155.4 c-0.7 -1.4 -1.7 -2.2 -2.2 -1.9 -0.6 0.3 -1 0.2 -1 -0.3 0 -0.9 2.3 -2.2 3.9 -2.2 0.4 0 0.7 1.6 0.7 3.5 0 1.9 -0.1 3.5 -0.1 3.5 -0.1 0 -0.7 -1.2 -1.3 -2.6z" />
        <path d="M187.7 156 c-0.3 -1.1 0 -2 0.6 -2 2.7 -0.1 9.7 -8.3 11.2 -13 1.7 -5.5 4.5 -6.7 4.5 -1.9 0 3.9 -5.3 12.7 -9.9 16.2 -4.1 3.2 -5.7 3.4 -6.4 0.7z" />
        <path d="M148 207.1 c-1.4 -2.7 0.4 -7.4 2.8 -6.9 2.1 0.4 3 6.7 1 7.9 -2 1.3 -2.6 1.1 -3.8 -1z" />
        <path d="M172.7 208.4 c-1.3 -1.3 -0.7 -6.1 0.8 -7.4 2.2 -1.9 3.7 0 3.3 4.1 -0.3 3.2 -2.4 4.9 -4.1 3.3z" />
      </g>
      <g fill="#a5292d">
        <path d="M2.2 479.8 c-0.5 -0.7 -1.2 -2.7 -1.5 -4.4 -0.4 -2.8 -0.2 -3.1 1.5 -2.6 3.1 0.8 3.7 -1.5 3.1 -10.3 -0.4 -5.5 -0.2 -8.9 0.6 -10.4 1.2 -2.2 1.3 -2.2 3.2 -0.5 1.8 1.6 1.9 1.6 2.5 -1.4 0.7 -3.6 3.3 -4.3 4.1 -1.2 0.6 2.4 1.9 2.6 2.7 0.4 0.8 -2.2 0.8 -2.4 -0.8 -2.4 -2.7 0 -2.6 -1.7 0.4 -5.5 1.7 -2.1 3 -4.4 3 -5.1 0 -0.7 0.6 -1.1 1.4 -0.8 0.8 0.3 1.7 0 2.2 -0.7 0.5 -0.8 0.3 -1 -0.6 -0.4 -0.8 0.5 -1.1 0.4 -0.7 -0.3 1.3 -2 4.2 -0.6 4.7 2.4 0.3 1.7 1.5 3.3 3 4.1 2.2 1.1 2.3 1.3 0.5 1.4 -1.1 0 -1.4 0.3 -0.7 0.6 1.4 0.6 1.6 2.9 0.2 3.8 -0.6 0.3 -0.7 -0.1 -0.4 -0.9 0.4 -1.1 0 -1.6 -1.5 -1.6 -1.3 0 -2.1 -0.6 -2.1 -1.7 0 -1.5 -0.2 -1.6 -1 -0.3 -0.7 1.1 -0.5 1.9 1 3.2 2.5 2 2.5 2.8 0.2 2.8 -3.4 0 -8.2 5.9 -4.9 6.1 0.6 0 0.1 0.5 -1.3 1 -2 0.8 -2.2 1.2 -1 1.9 1.2 0.8 1.1 1 -0.5 1.1 -1.1 0 -1.4 0.3 -0.7 0.6 0.6 0.2 1.2 1.2 1.1 2.1 0 1.1 -0.2 1.2 -0.6 0.5 -0.9 -2.5 -3.3 -1.3 -5.3 2.7 -1.1 2.3 -1.8 4.5 -1.5 5 0.3 0.6 0 1 -0.8 1 -0.8 0 -2.6 1.8 -4.1 4 -1.4 2.2 -3.1 4 -3.7 4 -0.6 0 -0.9 0.7 -0.5 1.5 0.7 1.8 0.2 1.9 -1.2 0.3z m8.6 -13.3 c0 -1.4 -0.4 -2.8 -0.9 -3.1 -1 -0.6 -1.2 3.9 -0.2 4.9 1 1 1.1 0.9 1.1 -1.8z m12.2 -23.1 c0 -0.8 -0.7 -1.4 -1.5 -1.4 -1.7 0 -1.8 0.2 -0.9 2.4 0.7 1.8 2.4 1.2 2.4 -1z" />
        <path d="M33.6 475.8 c-1.2 -4 -1.2 -5.9 0 -7.6 0.7 -1.1 1 -2.2 0.7 -2.6 -0.3 -0.3 -0.1 -0.6 0.5 -0.6 0.7 0 1.2 -0.7 1.2 -1.5 0 -0.9 0.9 -3.3 2 -5.4 1 -2.1 1.6 -4.1 1.3 -4.5 -0.4 -0.3 -0.1 -0.6 0.5 -0.6 1.8 0 3.7 -10.6 2.6 -14.8 -1.1 -4.5 -4 -5.4 -6.4 -2.1 -1.9 2.5 -5 2.1 -5 -0.7 0 -0.9 -0.8 -2.2 -1.7 -2.9 -1.5 -1.1 -1.5 -1.5 -0.4 -2.9 0.7 -0.9 1.8 -1.6 2.3 -1.6 0.5 0 2.1 -0.9 3.5 -2 4.1 -3.2 9.1 -2.6 13.6 1.6 2 1.9 3.7 3.7 3.7 4 0 0.2 -1.1 0.9 -2.5 1.4 -1.4 0.5 -2.5 1.6 -2.5 2.5 0 1.8 3.1 2 4.9 0.3 1.1 -1.1 1.3 -0.5 0.7 3.5 -0.3 3 -0.2 4.7 0.5 4.7 0.5 0 0.2 1.3 -0.7 2.9 -0.9 1.6 -1.4 3.6 -1.1 4.6 0.9 2.1 2.7 1 2.7 -1.6 0 -1.4 0.7 -1.9 2.5 -1.9 1.4 0 3.4 -0.9 4.5 -2 1.1 -1.1 2.9 -2 4 -2 1.1 0 2.3 0 2.7 -0.1 0.4 0 0.9 0.4 1.1 0.9 0.2 0.6 -0.6 0.8 -1.7 0.5 -1.2 -0.3 -2.1 -0.1 -2.1 0.6 0 0.6 -1.1 1.6 -2.5 2.1 -1.8 0.7 -2.4 1.6 -2.2 3.2 0.2 1.9 -0.2 2.2 -2.1 2 -2.8 -0.4 -11.7 8.1 -12.8 12.2 -0.3 1.4 -1 2.6 -1.4 2.6 -0.4 0 -1.3 1.4 -2 3 -2 4.7 -7.5 7.8 -8.4 4.8z m4.7 -6.6 c-0.2 -0.6 0.6 -1.6 1.7 -2.2 1.1 -0.6 2 -1.8 2 -2.8 0 -1.2 -0.8 -0.8 -3 1.6 -3.1 3.4 -3.9 5.7 -1.7 4.9 0.6 -0.2 1.1 -0.9 1 -1.5z m6.5 -10.5 c0.1 -1.8 1.9 -11.8 2.7 -14.8 0.5 -1.9 0.2 -2.6 -0.8 -2.6 -1.1 0 -1.7 1.8 -2.2 6.8 -0.4 3.8 -1.3 7.3 -2 7.9 -1.6 1.3 -0.8 5 0.9 4.4 0.7 -0.3 1.3 -1 1.4 -1.7z m-5.8 -29.9 c0 -0.5 -1 -0.8 -2.3 -0.8 -2.1 0 -5.2 3.2 -4.1 4.3 0.7 0.7 6.4 -2.5 6.4 -3.5z m6.8 1.9 c0.4 -2 -2.1 -3.2 -4.4 -2.3 -1.5 0.6 -1.5 0.8 0.1 2.6 2.1 2.3 3.8 2.1 4.3 -0.3z" />
        <path d="M1.7 468.4 c-0.6 -0.6 0 -6.1 1.1 -10.4 0.5 -1.9 0.7 -1.2 1.2 3 0.7 7 -0.1 9.6 -2.3 7.4z" />
        <path d="M2 449.5 c0 -1.4 0 -2.8 -0.1 -3.2 0 -0.4 0.4 -0.9 0.9 -1.1 1.3 -0.4 2.4 3.1 1.6 5.2 -0.9 2.4 -2.4 1.9 -2.4 -0.9z" />
        <path d="M67.2 430.9 c0.1 -2.5 -0.2 -5.1 -0.6 -5.7 -0.4 -0.7 -0.1 -1.2 0.7 -1.2 0.8 0 2 1.4 2.6 3.1 1.5 4.3 1.4 5.9 -0.3 5.9 -0.8 0 -1.7 0.6 -1.9 1.3 -0.3 0.6 -0.5 -0.9 -0.5 -3.4z" />
        <path d="M9.3 430.3 c-3 -0.4 -3.2 -0.6 -2.7 -3.6 0.8 -4.4 2.5 -7.7 4.1 -7.7 1.5 0 1.8 4.6 0.3 5.5 -1.5 1 -1.2 3.5 0.5 3.5 0.8 0 1.5 0.7 1.5 1.5 0 0.8 -0.1 1.4 -0.2 1.3 -0.2 0 -1.7 -0.3 -3.5 -0.5z" />
        <path d="M377.6 406.1 c-0.4 -0.6 -0.4 -2 -0.1 -3.1 0.6 -1.9 0.2 -2 -7.5 -2 -8.1 0 -14 -1.9 -17.8 -5.7 -0.8 -0.8 -2.1 -1.2 -2.8 -0.9 -1.7 0.6 -1.9 -2.5 -0.3 -4.1 0.6 -0.6 0.9 -2.1 0.7 -3.4 l-0.3 -2.4 -2 2.3 c-1.1 1.2 -2.5 2.2 -3.2 2.2 -0.6 0 -1.3 -1 -1.5 -2.2 -0.2 -1.3 -0.9 -2.2 -1.5 -2.1 -1.3 0.3 -3.4 -4.7 -4 -9.4 -0.5 -3.7 -1.8 -3.4 14.5 -3.7 8.4 -0.1 9.3 0.1 8.8 1.7 -0.3 1.2 0.8 2.5 4 4.3 2.4 1.4 4.4 3 4.4 3.6 0 0.5 1.6 0.8 3.4 0.7 1.9 -0.2 3.8 0 4.2 0.4 2.4 2.4 17.4 -1.8 17.4 -4.9 0 -0.6 0.7 -1.4 1.5 -1.8 1.9 -0.7 2.1 3 0.3 3.8 -0.7 0.3 -0.3 0.3 1 0 1.9 -0.5 2.2 -0.1 2.3 2.3 0.1 1.7 0.3 2.1 0.6 1.1 0.2 -1 0.9 -1.8 1.4 -1.8 0.6 0 0.7 0.5 0.4 1 -0.3 0.6 0.1 1 1 1 0.9 0 1.3 -0.5 1 -1 -0.4 -0.6 0.9 -0.2 2.7 0.8 2.5 1.5 3.8 1.7 5.6 0.9 3 -1.4 2.3 -3.1 -1.4 -3.2 -3.6 0 -4.7 -3.1 -1.2 -3.8 1.7 -0.3 1.5 -0.5 -0.9 -0.6 -2.2 -0.1 -3.3 0.4 -3.3 1.3 0 0.7 -0.9 1.6 -1.9 1.9 -1.5 0.4 -2.3 -0.4 -3.5 -3.7 -3.2 -8.4 -0.9 -13.4 2.7 -5.8 l1.8 3.7 -0.5 -3.7 c-0.3 -2.1 0 -4 0.5 -4.3 1.4 -0.9 1.1 -6.1 -0.5 -7.5 -0.8 -0.6 -1.6 -2.4 -1.8 -3.8 -0.2 -1.6 -0.9 -2.7 -1.8 -2.7 -2.3 0 -2.4 3.4 -0.1 5.3 1.9 1.6 2.5 3.2 2.2 6 -0.2 2.1 -2.1 1.3 -3.4 -1.5 -0.6 -1.6 -1.4 -3 -1.7 -3.3 -0.3 -0.3 -1 -1.4 -1.7 -2.5 -0.6 -1.1 -1.6 -1.9 -2.2 -1.7 -0.6 0.1 -1.1 -0.2 -1.1 -0.7 0 -0.4 -1.2 -0.6 -2.6 -0.3 -2.4 0.4 -2.5 0.3 -1.5 -1.6 0.6 -1.2 1.6 -2.4 2.1 -2.7 0.6 -0.4 0.8 -1.1 0.4 -1.6 -0.3 -0.5 -1 -0.7 -1.5 -0.3 -0.5 0.3 -0.7 0.8 -0.5 1.2 0.2 0.4 -3 0.6 -7.2 0.6 -4.3 -0.1 -7.9 0.2 -8.2 0.6 -1.5 2.3 -10.7 0.6 -11.5 -2.1 -0.4 -1.1 -2.2 -2.3 -4.3 -2.9 -4 -1.1 -8.1 -3.9 -12.1 -8.4 -1.4 -1.6 -3.9 -4.2 -5.5 -5.7 -1.6 -1.6 -2.4 -2.9 -1.7 -2.9 1.6 0 1.4 -3.1 -0.4 -4.4 -2 -1.5 -2.7 -18.7 -0.7 -19.3 0.6 -0.3 1.2 -1.5 1.2 -2.7 0 -2.6 2.2 -7.6 3.3 -7.6 0.5 0 0.5 -0.5 0.1 -1.2 -0.4 -0.6 -0.3 -0.8 0.4 -0.4 1.2 0.7 4.4 -3.3 3.6 -4.6 -0.3 -0.5 -0.2 -0.7 0.3 -0.6 0.8 0.3 4 -2.1 7.2 -5.4 0.9 -0.9 3.5 -2.1 5.8 -2.7 2.3 -0.6 4.8 -1.8 5.5 -2.5 2 -1.9 11.5 -2.9 20.8 -2 5.7 0.5 7.8 1 7.1 1.8 -0.5 0.6 -1.2 2.1 -1.5 3.3 -0.6 1.9 -0.4 2.1 1.5 1.8 1.3 -0.3 2.6 -1 3 -1.6 0.4 -0.8 2 -0.9 4.3 -0.5 4.1 0.8 4.7 2.1 1.4 2.9 -3.1 0.8 -1.6 1.9 2.6 1.9 2.1 0 4.1 0.7 5.2 1.9 0.9 1 2.9 1.9 4.3 1.9 2 0 2.3 0.2 1.1 1 -2 1.3 -0.1 4.4 3 4.8 1.5 0.3 1.9 0.6 1.1 1.1 -0.9 0.6 -0.8 1.7 0.4 4.5 2 4.8 1.2 9.2 -1.8 10 -2.9 0.8 -12.6 0.8 -16.5 0 -2.4 -0.5 -3.2 -1.3 -3.7 -3.5 -0.4 -1.6 -1.1 -3 -1.6 -3 -0.5 -0.1 -1.5 -0.2 -2.1 -0.3 -0.7 0 -1.3 -0.9 -1.3 -2 0 -1.1 -1.4 -2.6 -3.5 -3.7 -3.9 -2.1 -7 -2.5 -7 -0.8 0 0.8 -1.1 0.9 -3.2 0.4 -5 -1.1 -7.3 -0.8 -12 1.9 -4.6 2.6 -7.1 7.2 -4.7 8.7 1.1 0.7 0.9 0.9 -0.6 0.9 -1.6 0 -1.7 0.2 -0.6 0.9 1.1 0.7 0.9 1 -0.8 1.3 -3.2 0.5 -3 2.1 0.4 3.8 2.3 1.1 2.6 1.5 1.3 1.8 -2.4 0.5 -2.3 4.3 0.2 7.2 1.1 1.3 2 3.9 2.1 5.9 0.1 3.2 0.2 3.3 0.8 1.1 0.6 -1.9 1.3 -2.4 3.2 -2.2 1.3 0.1 2.9 0.9 3.5 1.7 1.3 1.7 7 2 7.9 0.4 1.2 -1.9 15.2 0.2 19 2.7 1.1 0.8 2.6 1.4 3.5 1.4 0.9 0 2.6 0.7 3.9 1.6 2.1 1.5 2.2 1.8 0.7 2.6 -2.8 1.6 0 4 3.6 3.3 2.2 -0.5 3.3 -0.2 4.8 1.7 3 3.5 5.7 8.9 6.5 13.1 0.4 2.2 1.3 3.7 2.1 3.7 2 0 1.7 3.8 -0.3 4.3 -1.7 0.4 -1.7 0.5 0 0.6 0.9 0 1.7 0.4 1.8 0.9 0 0.4 0.2 1.9 0.4 3.3 0.3 2.2 0 2.6 -1.5 2.2 -1.4 -0.4 -1.9 0.3 -2.4 3.3 -0.5 2.6 -0.4 3.9 0.6 4.5 1 0.7 0.9 0.9 -0.4 0.9 -2.4 0 -4.5 4 -2.7 5.1 1.1 0.7 0.9 0.9 -0.6 0.9 -2.3 0 -5 4.6 -3.1 5.4 0.6 0.2 0.2 0.5 -0.9 0.5 -1.6 0.1 -1.7 0.3 -0.5 1.1 1.2 0.7 1.2 1.2 0.2 2.2 -0.9 0.9 -1.2 0.9 -1.2 0 0 -0.7 -0.9 -1.2 -2 -1.2 -2.2 0 -2.7 1.6 -0.7 2.3 0.8 0.3 0.5 1.1 -1 2.6 -1.3 1.2 -2.3 1.7 -2.3 1.1 0 -1.6 -2.8 -1.2 -8.1 1.2 -3.4 1.6 -4.9 2.9 -5 4.3 -0.1 1.7 -0.2 1.7 -0.6 0.3 -0.5 -1.8 -4.9 -3.6 -6 -2.4 -0.4 0.3 0.1 0.6 1 0.6 1 0 1.7 0.7 1.7 1.5 0 0.9 -0.9 1.5 -2.4 1.5 -1.3 0 -3.7 0.3 -5.4 0.6 -1.7 0.4 -3.2 0.1 -3.6 -0.5z m5.4 -7 c0 -0.5 -0.6 -1.4 -1.4 -2 -1.2 -1 -1.3 -0.8 -0.9 0.8 0.5 2.1 2.3 3 2.3 1.2z m11.1 -4.4 c-1.3 -1.3 -2.6 -0.3 -1.6 1.2 0.3 0.6 1.1 0.8 1.7 0.5 0.6 -0.4 0.6 -1 -0.1 -1.7z m14.4 -3.7 c1 -1.1 1.6 -2.2 1.3 -2.5 -1 -1 -5.8 1.5 -5.8 3 0 2.1 2.4 1.9 4.5 -0.5z m-29.5 -3.5 c0 -2.1 -2.1 -2.8 -5.1 -1.6 l-2.4 0.9 2.5 1 c3.6 1.5 5 1.4 5 -0.3z m12 0 c0 -1 -1.1 -1.5 -3.5 -1.5 -4 0 -4.5 0.7 -1.2 2 3.3 1.3 4.7 1.2 4.7 -0.5z m-33.3 -12.1 c0.5 -1.4 -3.8 -2.7 -5 -1.5 -0.5 0.5 -0.6 1.4 -0.2 2.1 0.8 1.4 4.7 0.9 5.2 -0.6z m57.1 -26.9 c-0.3 -2 -3.4 -4.3 -4.3 -3.3 -0.4 0.3 0.1 2.1 1 3.8 1.7 3.3 4 3 3.3 -0.5z m-7.8 -0.1 c0 -0.8 -0.4 -1.4 -1 -1.4 -0.5 0 -1 0.9 -1 2.1 0 1.1 0.5 1.7 1 1.4 0.6 -0.3 1 -1.3 1 -2.1z m-23.6 -5.3 c0.3 -0.5 -1.4 -1.4 -3.9 -2 -5.5 -1.4 -17.5 -1.5 -17.5 -0.1 0 0.6 3.4 1 8.3 1 4.5 0 8.9 0.5 9.7 1 1.9 1.2 2.7 1.2 3.4 0.1z m-22.4 -7.1 c0 -2.2 -0.5 -3 -1.8 -3 -1.3 0 -1.8 0.9 -2 3 -0.2 2.4 0.2 3 1.8 3 1.6 0 2 -0.7 2 -3z m28.8 -4.5 c0.3 -0.3 -2 -0.5 -5.1 -0.5 -5.1 0 -6.7 0.7 -5.2 2.2 0.6 0.6 9.5 -0.9 10.3 -1.7z m-36.4 -0.1 c1.1 -0.4 1.3 -1.4 0.9 -3.5 -0.3 -1.8 -0.1 -2.9 0.6 -2.9 0.6 0 1.1 -1 1.1 -2.1 0 -1.8 -0.2 -1.9 -1.5 -0.9 -0.8 0.7 -1.5 2.3 -1.5 3.6 0 2 -0.5 2.4 -2.8 2.4 -3.9 0 -4.7 1.1 -1.9 2.6 2.7 1.5 3.1 1.6 5.1 0.8z m1.6 -25.4 c0 -1.1 -0.7 -2 -1.5 -2 -0.8 0 -1.5 0.9 -1.5 2 0 1.1 0.7 2 1.5 2 0.8 0 1.5 -0.9 1.5 -2z m-1.5 -12.3 c-0.7 -3.3 -0.8 -3.4 -2.6 -1.9 -2.6 2.2 -2.5 4.6 0.1 3.9 1.4 -0.3 2 0 2 1.1 0 0.8 0.3 1.3 0.6 1 0.3 -0.3 0.2 -2.2 -0.1 -4.1z m50.2 0.8 c0.2 -1.4 -0.1 -2.5 -0.7 -2.5 -0.5 0 -1 1.4 -1 3.2 0 3.5 1.2 3 1.7 -0.7z m7.9 -1.4 c-1.2 -2 -2.4 -1.2 -2.8 2 -0.5 3 -0.5 3 1.5 1.1 1.1 -1.1 1.6 -2.5 1.3 -3.1z m-42.3 -2.6 c0.1 -0.5 -0.6 -1.1 -1.5 -1.3 -1.1 -0.2 -1.8 0.3 -1.8 1.3 0 1.7 3 1.8 3.3 0z m37.7 -2 c0 -0.8 -0.4 -1.5 -0.9 -1.5 -1.3 0 -2.2 1.6 -1.4 2.4 1.1 1.1 2.3 0.6 2.3 -0.9z m-20.7 -9.2 l3.2 -1.8 -3.8 -0.3 c-3.7 -0.3 -9.7 1.6 -9.7 3 0 1.5 7.1 0.8 10.3 -0.9z" />
        <path d="M52 403.5 c-0.7 -0.8 -2.7 -1.5 -4.6 -1.5 -1.8 0 -3.5 -0.4 -3.8 -0.8 -0.3 -0.4 0.9 -0.8 2.6 -0.8 1.8 0.1 3.3 -0.5 3.6 -1.3 0.3 -1 0 -1.2 -1.2 -0.8 -1 0.4 -3 0.7 -4.6 0.7 -1.6 0 -3.5 0.7 -4.4 1.5 -0.8 0.8 -2.3 1.5 -3.4 1.5 -3.4 0 -14.5 -5.6 -17.7 -8.8 -1.6 -1.7 -3.6 -3.2 -4.2 -3.2 -0.7 0 -1.3 -0.9 -1.3 -2 0 -1.1 -0.5 -2 -1 -2 -0.6 0 -1.5 -1.1 -2.2 -2.5 -0.6 -1.3 -1.4 -2.2 -1.9 -2 -0.4 0.3 -1 -0.8 -1.3 -2.5 -0.3 -1.6 -0.9 -4.3 -1.2 -6 -0.3 -1.6 -0.9 -3 -1.3 -3 -0.5 0 -0.7 -25.8 -0.6 -57.2 0.2 -56.6 0.7 -64.9 3.7 -68.5 0.6 -0.7 0.7 -1.3 0.4 -1.3 -0.4 0 -0.1 -0.7 0.6 -1.5 2.9 -3.2 3.8 -4.4 3.8 -5.2 0 -0.4 1.2 -1.7 2.6 -2.8 1.4 -1.1 3.9 -3.2 5.5 -4.6 1.5 -1.5 3 -2.5 3.2 -2.3 0.2 0.3 1 -0.2 1.7 -1.1 0.7 -0.8 2.3 -1.5 3.6 -1.5 1.2 0 2.5 -0.4 2.8 -0.9 1.4 -2.2 27.3 -3.2 28.6 -1.1 0.4 0.7 2.8 1.5 5.3 1.7 2.6 0.3 4.5 0.8 4.4 1.2 -0.3 1 3.7 5.1 5 5.1 0.7 0 1.7 0.9 2.3 2 0.7 1.2 2.1 2 3.8 2 1.8 0 2.3 0.3 1.4 0.8 -0.7 0.5 -1 1.6 -0.7 2.5 0.7 1.7 3.2 3 4.5 2.2 1.1 -0.7 2.3 2.7 1.2 3.4 -2.3 1.5 0.5 11.1 3.2 11.1 1.9 0 2.6 4.6 2.6 17.6 l0 11.4 -4 0 c-2.3 0 -5.4 0.7 -6.9 1.5 -2.7 1.3 -3.1 1.3 -5.4 -0.5 -3.2 -2.6 -4.4 -2.5 -5.8 0.2 -1.2 2.1 -1.2 2.1 -2.6 -0.7 -1.1 -1.9 -1.4 -4.4 -1 -7.7 0.4 -2.8 0.1 -6.6 -0.7 -9.3 -0.8 -2.5 -1 -4.5 -0.6 -4.5 1.2 0 -1.4 -9.2 -3.5 -12.4 -1.2 -1.8 -2 -2.3 -2.5 -1.5 -0.5 0.7 -1.2 0.2 -2.1 -1.7 -0.8 -1.5 -2.7 -3.2 -4.2 -3.7 -3.1 -1 -5 -0.1 -2.7 1.3 0.9 0.6 1 1 0.3 1 -0.7 0 -1.6 -0.8 -2.2 -1.7 -0.8 -1.5 -2.2 -1.8 -7.6 -1.6 -5.5 0.2 -6.9 0.6 -8.5 2.5 -1.1 1.3 -1.9 2.9 -2 3.7 0 0.8 -0.8 2.3 -1.7 3.3 -2 2.2 -3.2 12.8 -1.4 12.8 0.6 0 1.1 0.7 1.1 1.5 0 0.8 -0.7 1.5 -1.5 1.5 -2.3 0 -1.9 4.7 0.4 5.3 1.9 0.4 1.9 1.9 1.8 39.7 0 37.2 -0.1 39.3 -1.9 39.8 -1 0.2 -1.8 0.9 -1.8 1.4 0 0.6 0.8 0.8 1.8 0.6 1.4 -0.4 1.8 0 1.7 1.4 -0.1 1.1 -0.7 2.3 -1.5 2.8 -3.2 2 2.4 19.6 6.5 20.5 5.9 1.4 8.6 1.8 14.5 2.2 5.9 0.4 6.9 0.2 11.3 -2.6 4.3 -2.8 4.7 -3.4 4.7 -6.9 0 -2.1 0.3 -4.2 0.6 -4.5 0.4 -0.4 0.8 -2.1 0.9 -3.9 0.1 -1.8 0.6 -5.1 1 -7.2 0.7 -3.4 0.6 -3.9 -0.8 -3.3 -1 0.4 -1.7 0.1 -1.7 -0.6 0 -0.8 -0.4 -0.7 -1.1 0.3 -0.8 1.2 -1 0.9 -0.6 -1.2 0.3 -2 0 -2.8 -1 -2.8 -0.8 0 -1.1 0.5 -0.7 1.2 0.5 0.8 0.2 0.9 -1 0.5 -1 -0.4 -2.2 -0.7 -2.7 -0.7 -0.5 0 -0.9 -0.6 -0.9 -1.4 0 -0.8 -1.3 -1.6 -2.9 -1.8 -2.7 -0.4 -2.9 -0.1 -3.5 3.4 -0.7 4.1 -2.6 5.2 -2.7 1.6 0 -1.3 -0.1 -5.2 -0.3 -8.8 -0.2 -3.6 -0.1 -7.9 0.2 -9.7 l0.4 -3.2 21.9 0.1 c12.1 0 21.9 0.4 21.9 0.8 0 0.5 0.3 1.5 0.6 2.4 0.5 1.2 0 1.6 -1.7 1.7 -2.3 0 -2.3 0.1 -0.3 0.9 1.9 0.8 2.1 1.6 2.3 16 0.2 14.4 0.1 15.2 -1.8 15.7 -3.1 0.8 -6 12.3 -3 12.3 2.1 0 0.4 4.5 -1.8 4.8 -1.3 0.2 -3.1 1.3 -4 2.5 -1 1.2 -3.1 3 -4.6 4 -1.5 1 -3.2 2.8 -3.8 4 -1.6 3.6 -7.6 5.9 -13.1 5.1 l-4.8 -0.7 0 3.2 c0 3.4 -1.9 4.2 -4 1.6z m-26.6 -12.1 c2.2 -2.1 2.3 -12.4 0.1 -12.4 -1.1 0 -1.5 1.3 -1.5 5.4 0 3 -0.5 5.8 -1 6.1 -0.6 0.4 -0.8 1.1 -0.5 1.6 0.8 1.2 1.1 1.2 2.9 -0.7z m43.6 -0.9 c1.1 -0.7 1 -1 -0.6 -1.5 -2 -0.8 -5.4 0.5 -5.4 2 0 1 4 0.7 6 -0.5z m7.6 -4 c0.3 -2 1.1 -3.5 1.8 -3.4 2.8 0.3 3.6 -0.3 3.5 -2.8 0 -1.6 -0.4 -3.7 -0.8 -4.8 -0.7 -1.8 -0.9 -1.6 -1.5 1.2 -0.5 2.1 -2.2 4.4 -4.7 6.4 -4.5 3.6 -5.2 6.9 -1.4 6.9 2 0 2.5 -0.6 3.1 -3.5z m-26.1 0.5 c-0.8 -1.3 -13.5 -1.1 -13.5 0.1 0 0.5 3.2 0.9 7.1 0.9 4.6 0 6.8 -0.4 6.4 -1z m9.5 -0.9 c2.5 -4.8 0.7 -5.3 -4.5 -1.1 l-3.8 3 3.6 0 c2.6 0 3.9 -0.6 4.7 -1.9z m-11 -3.1 c0 -0.5 -1.8 -1 -4.1 -1 -2.4 0 -3.8 0.4 -3.4 1 0.3 0.6 2.2 1 4.1 1 1.9 0 3.4 -0.4 3.4 -1z m-21.5 -8 c1.1 -3.3 -1.6 -5.7 -2.9 -2.5 -0.6 1.7 0.2 4.5 1.4 4.5 0.5 0 1.1 -0.9 1.5 -2z m-16 -5.6 c-0.4 -2.9 -1.1 -4.4 -2.1 -4.4 -2.5 0 -2.6 2.6 -0.3 7 2.6 4.9 3.4 4 2.4 -2.6z m72.2 -1.8 c0.1 -1.7 -0.3 -2.6 -1 -2.3 -0.6 0.2 -1.2 1.6 -1.2 3 -0.2 3.6 1.9 2.9 2.2 -0.7z m-76.7 -55.6 c0 -41.8 0.3 -52 1.3 -51.8 1.4 0.3 1.7 -0.2 1.7 -3.2 0 -3.3 -2.8 -2.3 -4 1.4 -1.5 4.5 -1.5 6.7 -1.2 59.9 0.1 29.6 0.6 45.7 1.2 45.7 0.7 0 1 -18 1 -52z m67.2 49 c-0.2 -1.6 -0.6 -3 -0.8 -3 -0.2 0 -0.4 1.4 -0.4 3 0 1.7 0.4 3 0.8 3 0.5 0 0.7 -1.3 0.4 -3z m13.8 -2.5 c0 -4.2 -0.3 -5.5 -1.5 -5.5 -1.2 0 -1.5 1.3 -1.5 5.5 0 4.2 0.3 5.5 1.5 5.5 1.2 0 1.5 -1.3 1.5 -5.5z m-77.3 -63.7 c-0.1 -11.7 -0.2 -2.4 -0.2 20.7 0 23.1 0.1 32.7 0.2 21.3 0.2 -11.4 0.2 -30.3 0 -42z m72.3 -40.8 c0 -2.4 -2 -3.7 -3 -1.9 -1 1.6 0.7 5.2 2.1 4.4 0.5 -0.4 0.9 -1.5 0.9 -2.5z m-71 -6.9 c0 -1.1 -0.4 -2.3 -1 -2.6 -0.6 -0.4 -1 0.5 -1 1.9 0 1.4 0.5 2.6 1 2.6 0.6 0 1 -0.9 1 -1.9z m14.8 -2.5 c0.2 -2.6 -0.3 -3.8 -1.7 -4.5 -2.9 -1.6 -4.1 -1.3 -4.1 0.9 0 1.4 0.7 2 2.4 2 1.7 0 2.3 0.5 2.1 1.8 -0.2 1.5 0.2 3.2 0.9 3.2 0.1 0 0.3 -1.6 0.4 -3.4z m55.2 1.7 c0 -0.5 -0.4 -1.5 -1 -2.3 -1.1 -1.8 -2.5 -0.7 -1.7 1.5 0.6 1.5 2.7 2.1 2.7 0.8z m-18 -4.4 c0 -0.5 -0.7 -0.9 -1.5 -0.9 -1.5 0 -2 1.2 -0.9 2.3 0.8 0.8 2.4 -0.1 2.4 -1.4z m-6.5 -4 c0.5 -0.5 -0.4 -0.9 -2.3 -0.9 -2.2 0 -3.2 0.5 -3.2 1.6 0 1.1 0.6 1.4 2.3 0.9 1.2 -0.4 2.6 -1.1 3.2 -1.6z m-32.5 -4.4 c0.7 -0.8 2.3 -1.5 3.6 -1.5 3.3 0 3.8 -1.5 0.9 -2.8 -2.1 -1 -2.8 -0.8 -5 1.4 -2.5 2.5 -3.2 4.4 -1.6 4.4 0.5 0 1.4 -0.7 2.1 -1.5z m43.5 -2.5 c0.8 -1.3 -3.3 -2.9 -5.7 -2.2 -1.9 0.5 -2.3 1.4 -1.1 2.5 1 1.1 6.1 0.8 6.8 -0.3z m-12.8 -4.5 c0.3 -0.9 0.3 -1.8 0 -2.1 -0.2 -0.3 -5.1 -0.5 -10.8 -0.6 -7.3 -0.1 -10.4 0.2 -10.3 1 0.1 0.7 0.2 1.7 0.3 2.2 0 0.6 4.2 1 10.1 1 8.2 0 10.2 -0.3 10.7 -1.5z" />
        <path d="M222 399.9 c0 -0.8 -3.9 -1 -13.2 -0.8 -11.3 0.3 -13.3 0.2 -13.3 -1.1 0 -0.9 1.4 -1.7 3.8 -2.1 4.5 -0.7 6 -1.9 2.4 -1.9 -5.5 0 -5.3 1.1 -5.1 -28.6 0.2 -28.6 0.5 -30.4 4.5 -30.4 1.1 0 1.9 -0.4 1.9 -1 0 -0.5 -1.6 -1 -3.5 -1 -3.1 0 -3.5 -0.3 -3.5 -2.5 0 -2.4 1.5 -3.5 2.2 -1.6 0.5 1.3 6.8 2.5 6.8 1.2 0 -0.5 -0.7 -1.4 -1.6 -1.9 -2.9 -1.6 8.4 -2.4 14.6 -1.1 3 0.7 4.9 1.4 4.2 1.7 -0.8 0.2 -3.3 -0.1 -5.7 -0.8 -3 -0.8 -4.9 -0.9 -6.1 -0.2 -1.6 0.9 -1.2 1.1 2.1 1.8 5.1 0.9 10.5 3.2 10.5 4.3 0 0.5 -1.9 0.3 -4.2 -0.4 -2.4 -0.7 -5.2 -0.9 -6.3 -0.5 -1.9 0.7 -1.8 0.7 0.4 2 1.3 0.7 4.1 1.2 6.3 1.2 4.1 -0.1 5.2 1.4 1.6 2.1 l-2.3 0.4 2.3 0.2 2.2 0.1 0 25.9 c0 25.8 0 26 -2.2 26.3 -1.1 0.2 -2.2 1.1 -2.4 2.1 -0.3 2.1 2.5 3.5 3.5 1.8 0.4 -0.7 0.8 0.4 0.9 2.4 0.1 1.9 -0.1 3.5 -0.3 3.5 -0.3 0 -0.5 -0.5 -0.5 -1.1z m-11 -35.3 c1.3 -1.3 1.3 -26.3 0 -27.1 -1.3 -0.8 -5 0.4 -5 1.6 0 0.5 0.9 0.9 2 0.9 1.9 0 2 0.7 2 12.4 0 7.3 -0.4 12.7 -1 13.1 -1.2 0.7 -1.4 22.4 -0.2 25.2 0.4 1 0.8 -4.3 1 -11.7 0.1 -7.4 0.7 -13.9 1.2 -14.4z m5.5 13.4 c0 -7.7 -0.2 -14 -0.5 -14 -2.3 0 -3 3.3 -3 13.6 0 11.7 0.4 14.4 2.4 14.4 0.8 0 1.1 -4.2 1.1 -14z m0.2 -25.2 c-0.2 -1.3 -0.4 -0.3 -0.4 2.2 0 2.5 0.2 3.5 0.4 2.3 0.2 -1.3 0.2 -3.3 0 -4.5z" />
        <path d="M296.8 399.3 c-3.7 -0.9 -1.9 -9.2 2.9 -14.1 0.7 -0.7 1.3 -1.8 1.3 -2.3 0 -0.6 0.4 -0.8 1 -0.4 0.9 0.6 4.6 -5.3 4.2 -6.7 -0.6 -2.3 2.8 -0.1 4.4 2.6 0.6 1.1 1.6 2.2 2.2 2.4 1.8 0.6 1.5 -4.5 -0.3 -5.5 -2 -1.2 -2.7 -7.9 -0.9 -9.4 0.8 -0.6 1.4 -2 1.4 -3.1 0 -2.8 1.8 -5.8 3.5 -5.8 0.9 0 1.5 -1 1.5 -2.4 0 -1.4 0.7 -2.6 1.8 -2.8 1.6 -0.4 1.7 0.8 1.5 16.6 -0.2 25.5 -0.1 24.6 -1.8 24.6 -1.3 0 -1.5 -2.6 -1.5 -17.5 0 -10.2 -0.4 -17.5 -0.9 -17.5 -0.9 0 -2 36.5 -1.2 38.4 0.2 0.5 0.8 0.1 1.3 -0.8 0.9 -1.6 3.7 -2.2 3.9 -0.8 0 0.4 0.2 1.4 0.4 2.2 0.2 1.2 -0.5 1.5 -2.6 1.4 -1.6 -0.1 -3.1 0.2 -3.4 0.6 -0.6 1 -12.2 0.6 -13.2 -0.4 -1.1 -1.1 4 -4.6 5.7 -4 0.8 0.4 2.4 0.9 3.5 1.1 1.7 0.5 1.8 0.3 0.7 -0.8 -0.9 -1 -3.2 -1.3 -7.3 -1.2 l-6 0.3 0.6 -3 c0.5 -2.3 0.3 -2.9 -0.7 -2.5 -2.2 0.9 -1.8 7.3 0.5 7.9 1.1 0.2 1.7 1 1.5 1.7 -0.5 1.5 -1.6 1.8 -4 1.2z m13 -12.5 c-0.8 -2.3 -3.5 -3.3 -5.2 -1.9 -0.9 0.7 -1.3 1.7 -1 2.2 0.8 1.4 6.6 1.1 6.2 -0.3z" />
        <path d="M108.1 373.1 c-0.1 -0.9 -0.9 -1.1 -2.5 -0.7 l-2.4 0.6 0.1 -37.5 c0.1 -20.6 0.5 -37.5 0.9 -37.5 0.4 0 0.9 6.6 1.1 14.8 0.2 10.2 0.3 8.3 0.3 -6.3 0 -11.5 -0.1 -18.4 -0.3 -15.2 -0.8 11.3 -1.8 5.4 -1.7 -9.6 0.1 -22.2 -0.6 -19.9 6.4 -19.6 3.3 0.1 6.3 -0.1 6.7 -0.4 1.3 -1.3 2.1 -0.7 2.1 1.8 0 1.4 0.3 2.9 0.6 3.3 1.3 1.2 4.1 -1.5 3.8 -3.7 -0.3 -1.6 0.2 -2.1 1.9 -2.1 1.7 0 2 0.4 1.6 2.2 -0.4 1.2 -0.1 2.8 0.5 3.5 1.2 1.5 4.8 1.8 4.8 0.4 0 -0.4 2.1 -1.4 4.6 -2.1 2.5 -0.7 4.8 -1.9 5.1 -2.7 0.6 -1.6 17.8 -1.9 18.8 -0.3 0.3 0.5 0.1 1.8 -0.4 2.8 -0.9 1.7 -0.6 1.8 4.5 1.1 4 -0.5 6.2 -0.3 8.4 0.8 1.6 0.8 3.4 1.2 3.9 0.9 0.5 -0.3 1.4 0.1 2.1 0.9 1 1.2 1 1.5 0 1.5 -0.9 0 -0.8 0.5 0.3 1.8 2.1 2.3 2.2 4.2 0.3 4.2 -0.8 0 -2.3 1 -3.3 2.3 -3.2 3.9 -7.2 6.5 -9.3 6 -1.5 -0.4 -2 0 -2 1.4 0 2.1 -3.7 5.7 -4.5 4.3 -0.3 -0.5 -0.4 -1.9 -0.1 -3.2 0.3 -1.9 -0.1 -2.3 -2.5 -2.5 -3.6 -0.3 -7.1 -2.1 -6.4 -3.3 0.6 -1 -2.2 -2.7 -4.2 -2.6 -0.7 0.1 -1.8 0.9 -2.5 1.8 -1.1 1.4 -5.8 2.6 -10.6 2.8 -0.7 0 -1.1 0.4 -0.8 0.9 1 1.5 -4.2 5.4 -6.4 4.8 -1.1 -0.3 -2 0 -2 0.6 0 0.7 -0.4 0.6 -1 -0.3 -0.5 -0.8 -1.2 -1.1 -1.6 -0.7 -0.4 0.3 -0.2 1.2 0.4 1.9 0.5 0.7 1.2 2.4 1.4 3.8 0.2 1.4 0.8 2.5 1.3 2.4 0.6 -0.1 1.8 0.7 2.8 1.7 1.4 1.6 1.4 1.9 0.2 1.9 -0.8 0 -1.5 0.9 -1.5 1.9 0 1.1 -0.4 2.3 -1 2.6 -0.5 0.3 -1 1.2 -1 1.8 0 0.8 0.3 0.8 0.9 -0.1 0.9 -1.5 2.4 29.2 1.5 32.6 -0.8 2.7 -2.8 2.8 -5.6 0.3 -1.9 -1.8 -2 -2.8 -1.6 -13.3 0.3 -6.2 0.3 -9.3 0.1 -6.8 -0.2 2.5 -0.8 5.5 -1.5 6.7 -0.6 1.3 -0.9 4.8 -0.6 8.7 0.4 4.9 0.2 6.8 -0.9 7.9 -1.4 1.3 -1.3 1.6 0.6 2.6 1.1 0.7 2.1 1.8 2.1 2.6 0 0.8 0.5 1.5 1 1.5 0.6 0 1 0.7 1 1.5 0 0.8 0.5 1.5 1 1.5 0.6 0 1 0.8 1 1.8 0 1.1 -0.3 1.3 -0.8 0.5 -1 -1.6 -7.8 -2.7 -8.6 -1.4 -0.7 1 0.7 1.6 2.8 1.2 1.9 -0.4 4.6 1.1 4.6 2.5 0 1.3 -0.2 1.3 -1.6 -0.1 -1.3 -1.2 -1.9 -1.4 -2.8 -0.4 -0.8 0.8 -0.8 1.3 0.2 1.6 2.2 0.8 1.3 2.1 -2 2.6 -2.6 0.4 -3.7 0 -5 -1.6 -0.9 -1.2 -2 -1.8 -2.5 -1.3 -0.4 0.4 0.2 1.6 1.5 2.6 1.2 1 2.2 2.5 2.2 3.4 0 0.9 0.5 1.6 1 1.6 1.7 0 1.1 2 -1.4 4.5 -1.3 1.3 -2.6 3 -2.9 3.7 -0.4 1 -0.6 1 -0.6 -0.1z m-0.1 -5.6 c1.4 -1.6 0.6 -3.5 -1.6 -3.5 -0.8 0 -1.4 1 -1.4 2.5 0 2.8 1.2 3.2 3 1z m18 -35.6 c0 -4.4 -0.3 -6 -1.2 -5.7 -2 0.7 -2.2 11.8 -0.3 11.8 1.2 0 1.5 -1.4 1.5 -6.1z m-2.6 -23.5 c0 -1.6 -0.4 -4.4 -0.8 -6.1 -0.6 -2.7 -0.5 -3.2 0.7 -2.7 1.1 0.4 1.5 0 1.3 -1.3 -0.2 -1 -1 -1.7 -1.9 -1.7 -5.5 0.4 -5.4 0.4 -3.4 1.5 1.3 0.8 1.7 2.4 1.7 7.5 0 4.8 0.3 6.5 1.3 6.1 0.6 -0.2 1.2 -1.7 1.1 -3.3z m-2.8 -20.3 c-0.6 -0.8 2.8 -2.5 6.9 -3.4 1.1 -0.3 -0.6 -0.5 -3.7 -0.6 -5.5 -0.1 -5.8 0 -5.8 2.4 0 1.6 0.6 2.5 1.6 2.5 0.8 0 1.3 -0.4 1 -0.9z m52.2 -10.4 c0.2 -1.1 -0.3 -1.7 -1.7 -1.7 -2.3 0 -3.5 1.5 -2.6 3.1 1 1.5 3.9 0.6 4.3 -1.4z m-17.3 -3.6 c-1.5 -1.3 -11.5 -2.4 -11.5 -1.2 0 0.6 2.6 1.2 5.8 1.4 3.1 0.2 5.9 0.4 6.2 0.5 0.2 0.1 0 -0.2 -0.5 -0.7z m-12.3 -5.1 c0.5 -1.7 11.7 -3.3 13.4 -1.9 1.2 1 1.3 0.9 0.8 -0.4 -0.6 -1.8 -1.8 -2.2 -8.1 -3.2 -4.7 -0.7 -6.5 0.3 -7.5 4.3 -0.6 2.1 0.7 3.3 1.4 1.2z" />
        <path d="M124.5 349.3 c-3 -0.6 -6.2 -8.3 -3.5 -8.3 0.6 0 1.3 0.6 1.6 1.4 0.3 0.8 1.9 2 3.5 2.6 4.6 1.9 3.3 5.3 -1.6 4.3z" />
        <path d="M318.4 340.1 c0.3 -3.8 0.9 -7.7 1.2 -8.6 1.2 -3.1 2.4 0.7 2.3 7 -0.2 7.2 -0.6 8.5 -2.7 8.5 -1.2 0 -1.4 -1.1 -0.8 -6.9z" />
        <path d="M255.8 343.2 c-1.2 -0.2 -1.8 -1.3 -1.9 -3 -0.1 -6.4 -0.9 -10.8 -2.2 -11.7 -0.8 -0.5 -1.6 -2.4 -1.9 -4.1 -0.3 -2.7 -0.1 -3 1.5 -2.6 1.6 0.4 1.8 0 1.5 -2.8 -0.3 -3.3 -2.8 -5.6 -2.8 -2.6 0 0.9 0.5 1.6 1 1.6 0.6 0 1 0.7 1 1.5 0 0.8 -0.5 1.5 -1.1 1.5 -0.5 0 -0.7 -0.4 -0.4 -1 1 -1.7 -0.7 -1.1 -2 0.7 -1.6 2.1 -3.2 1 -4 -2.8 -0.4 -1.9 -0.2 -3.6 0.7 -4.6 0.9 -1.2 0.9 -1.5 0.1 -0.9 -1 0.5 -1.3 -0.8 -1.2 -5.6 0 -3.5 0.3 -5.7 0.6 -5 1.8 4.6 2.3 -2.2 2.1 -33 l-0.3 -34.3 -0.2 32 c-0.2 17.5 -0.7 32.3 -1.2 32.8 -0.5 0.5 -0.7 -13.8 -0.6 -32.5 0.3 -36.8 0.2 -34.8 1.3 -34.7 2.1 0.4 3.1 -0.3 2.5 -1.7 -0.3 -0.9 -1.3 -1.4 -2.4 -1.1 -1.4 0.4 -1.9 0 -1.9 -1.6 0 -4.4 1.3 -5 8.4 -4.4 3.6 0.3 7 0.8 7.5 1.2 0.5 0.3 1.2 0.1 1.5 -0.4 0.7 -1.1 10.6 -1.3 10.7 -0.3 0 0.4 0.2 1.4 0.4 2.2 0.2 1.1 -0.6 1.5 -2.9 1.5 -1.7 0 -3.1 0.5 -3.1 1 0 1 0.5 1.2 4.3 1.4 3.4 0.2 2.6 1.6 -1.4 2.7 -1.9 0.5 -3.5 1.2 -3.5 1.7 0.1 0.4 0.2 15.2 0.3 33 l0.3 32.2 0.5 -32.5 c0.5 -31.8 0.5 -32.5 2.5 -32.2 1.1 0.2 2.2 0.6 2.4 0.8 0.2 0.2 0.6 14.8 0.9 32.5 l0.5 32.2 -2.7 -0.5 c-3 -0.6 -3.2 -0.2 -4 10.1 -0.4 5.4 -0.3 6 0.8 4 0.6 -1.3 1.9 -2.5 2.9 -2.7 2.6 -0.5 2.4 5.4 -0.3 6.1 -1.1 0.3 -2 1.2 -2 2.1 0 1.8 -1.5 2.1 -2.5 0.6 -1.1 -1.8 -2.3 -1.1 -3 1.7 -0.5 2.1 -0.2 3.2 1.4 4.4 1.2 1 2.1 2.5 2.1 3.6 0 1.4 -0.2 1.5 -0.9 0.4 -0.6 -0.9 -1.8 -1.1 -3.5 -0.7 -2.2 0.5 -2.6 0.3 -2.6 -1.4 0 -1.1 -0.5 -2 -1 -2 -1.2 0 -0.9 11.2 0.4 12.1 1.5 1.2 -0.7 5.5 -2.6 5.1z m8.2 -37.7 c0 -3 -0.4 -5.5 -1 -5.5 -0.5 0 -1 2.5 -1 5.5 0 3 0.5 5.5 1 5.5 0.6 0 1 -2.5 1 -5.5z m-2.5 -78.5 c-1.6 -1.7 -2.9 -2 -7.4 -1.8 -8.2 0.4 -7.8 2.6 0.6 3.1 3.7 0.2 7.2 0.4 7.7 0.5 0.5 0.1 0.1 -0.7 -0.9 -1.8z" />
        <path d="M316 314.8 c-1.1 -1.8 -2 -4.1 -2 -5 0 -0.9 -0.4 -2 -1 -2.3 -0.5 -0.3 -1 -0.2 -1 0.4 0 0.6 -1.1 -0.1 -2.5 -1.4 -1.3 -1.4 -3.1 -2.5 -3.9 -2.5 -0.8 0 -2.1 -0.3 -3 -0.6 -1.2 -0.5 -1.6 0 -1.6 1.6 0 2.2 -0.1 2.2 -1.8 0.7 -1 -1 -2.4 -1.7 -3 -1.7 -0.8 0 -1.2 -1.8 -1.2 -4.7 -0.1 -7.6 0.2 -73.7 0.2 -75 0.1 -0.8 3.2 -1.1 9.9 -1.1 5.4 0 9.6 0.5 9.3 0.9 -0.3 0.5 1 0.9 2.9 0.9 3 0 3.5 0.4 4 2.8 0.6 3.2 0.5 81.2 -0.1 86.6 -0.5 4.5 -2.6 4.7 -5.2 0.4z m2 -9.8 c0 -3.2 -0.4 -6.2 -1 -6.5 -0.5 -0.3 -1 -3.4 -1 -6.7 0 -3.4 -0.3 -5.9 -0.6 -5.5 -1 0.9 0.7 25.7 1.7 25.1 0.5 -0.3 0.9 -3.2 0.9 -6.4z m-4 -2 c0 -2.1 -2.4 -2.7 -5 -1 -1.2 0.7 -1 1.1 1 1.9 3.6 1.4 4 1.3 4 -0.9z m-10 -7.4 c-2 -2.5 -2.8 -1.9 -3.2 2.4 l-0.4 4 2.5 -2.4 c2 -2.1 2.2 -2.7 1.1 -4z m-5.1 -31.2 c0.2 -26.6 0.1 -29.4 -1.4 -29.4 -1.5 0 -1.6 2.7 -1.5 28.3 0.1 15.5 0.4 30.5 0.8 33.2 l0.6 5 0.6 -3.8 c0.4 -2.1 0.8 -17.1 0.9 -33.3z m2.8 -17.1 c-0.1 -7.1 -0.3 -1.3 -0.3 12.7 0 14 0.2 19.8 0.3 12.8 0.2 -7.1 0.2 -18.5 0 -25.5z m-2 -17 c-1.5 -1.6 -1.7 -1.6 -1.7 -0.1 0 0.9 0.6 1.8 1.3 2.1 2 0.7 2.2 -0.2 0.4 -2z m17.6 0.2 c0.1 -0.5 -0.6 -1.1 -1.5 -1.3 -1.1 -0.2 -1.8 0.3 -1.8 1.3 0 1.7 3 1.8 3.3 0z m-5 -4 c-0.4 -1.5 -11.5 -1.3 -12.1 0.3 -0.3 1 1.1 1.2 5.9 1 3.6 -0.2 6.3 -0.7 6.2 -1.3z" />
        <path d="M198.8 303.3 c-4.3 -0.7 -4.3 -3.1 0 -3.8 2 -0.4 4.9 -0.9 6.4 -1.1 1.4 -0.3 2.9 0 3.3 0.6 0.5 0.8 1 0.8 2 0 0.8 -0.6 2.4 -1 3.6 -0.8 2.6 0.4 3.8 2.8 1.4 2.8 -0.9 0 -2.4 0.7 -3.2 1.6 -1.5 1.4 -1.7 1.4 -2.5 0 -1.1 -2 -5.7 -2.1 -6.4 -0.1 -0.4 0.8 -0.9 1.4 -1.3 1.4 -0.3 -0.1 -1.8 -0.4 -3.3 -0.6z" />
        <path d="M199.3 296.2 c-3.1 -0.3 -3.3 -0.6 -3.3 -4.3 0 -2.1 0.3 -3.9 0.8 -3.9 0.4 0 0.6 -3.2 0.4 -7 -0.2 -3.9 -0.7 -6.8 -1.1 -6.6 -0.3 0.3 -0.6 -0.8 -0.5 -2.2 0.1 -1.5 0.3 -3.6 0.3 -4.7 0.1 -1.9 0.8 -2 10.9 -1.9 13.8 0.1 15.2 0.2 15.2 1.3 0 0.5 -1.2 1.2 -2.6 1.5 -2.1 0.6 -2.4 0.9 -1.4 2.1 0.7 0.8 1.9 1.5 2.6 1.5 1.1 0 1.4 1.8 1.4 7.4 0 6.3 -0.3 7.4 -1.8 7.8 -1.5 0.4 -1.8 1.2 -1.4 3.7 0.6 4.5 -1.7 6 -9.8 5.8 -3.6 -0.1 -8 -0.3 -9.7 -0.5z m12.7 -16.8 c0 -3.6 -0.4 -6.4 -1 -6.4 -0.6 0 -1 3 -1 7.1 0 4.4 0.4 6.8 1 6.4 0.6 -0.3 1 -3.5 1 -7.1z m-1 -9.3 c0 -1 -2.4 -2.1 -4.6 -2.1 -1.2 0 -1.3 0.3 -0.2 1.5 1.4 1.6 4.8 2 4.8 0.6z" />
        <path d="M146.4 239.6 c-0.7 -1.6 -0.8 -2.8 -0.2 -3.4 0.7 -0.7 0.2 -1.2 -1.2 -1.7 -2.5 -0.8 -4.1 0.2 -2.1 1.4 0.7 0.5 1 1.4 0.7 2 -1 1.6 -5.7 1.3 -8 -0.4 -1.9 -1.4 -1.8 -1.5 1 -1.6 2.6 -0.1 2.5 -0.2 -1.3 -1.2 -2.3 -0.7 -4.5 -1.5 -4.9 -2 -0.4 -0.4 -1.8 0.5 -3.1 1.9 -1.3 1.5 -2.3 2.2 -2.3 1.5 0 -0.7 -0.4 -0.9 -1 -0.6 -0.5 0.3 -1 0.1 -1 -0.6 0 -0.7 -0.7 -2.1 -1.7 -3.1 -1.6 -1.8 -1 -2.3 2.5 -1.9 0.7 0.1 2.4 -0.7 3.9 -1.8 1.4 -1.2 3.1 -2.1 3.8 -2.1 0.6 0 2.1 -1 3.3 -2.2 4.3 -4.6 7.8 -6 9.4 -3.6 0.6 0.9 0.7 0.6 0.3 -0.9 -0.5 -1.8 -0.1 -2.2 3.5 -2.8 2.2 -0.4 6.8 -0.4 10.1 0 4 0.5 7 0.3 9 -0.5 2.4 -1 4.1 -1 8.5 0 3 0.7 5.4 1.7 5.4 2.2 0 0.4 0.9 0.8 1.9 0.8 1.1 0 2.8 1.1 3.9 2.4 1 1.4 3.1 2.8 4.5 3.1 3.8 1 4.2 3.2 0.7 4 -4.6 1 -4.6 2.5 -0.1 2.5 2.6 0 4 -0.4 3.9 -1.1 -0.3 -1.1 2 -1.3 9 -0.9 1.6 0.1 2.1 0.4 1.2 0.7 -0.8 0.3 -3 1.9 -4.9 3.5 -2.5 2.2 -4 2.8 -5.7 2.4 -1.6 -0.4 -2.3 -0.2 -2.2 0.5 0.4 1.5 -3.3 2.7 -8.4 2.8 -2 0.1 -3.9 0.7 -4.1 1.4 -0.4 0.9 -0.8 0.9 -1.4 0 -0.4 -0.6 -3.6 -2.4 -7.1 -4 -3.4 -1.6 -5.9 -3.2 -5.6 -3.6 1.2 -1.1 -1.7 -3.7 -4.1 -3.7 -1.2 0 -2.8 0.7 -3.5 1.5 -0.9 1.1 -2.2 1.4 -4.1 1 -1.5 -0.3 -3 -0.1 -3.4 0.4 -0.3 0.7 0.2 1.1 1.4 1.1 3.3 0 2.4 2.5 -1.5 4.3 -2.4 1.2 -3.4 2.2 -3 3.2 0.9 2.5 -0.8 1.7 -2 -0.9z m38.7 -5.1 c0 -0.5 -0.7 -1.2 -1.6 -1.3 -2.3 -0.5 -4.7 0.6 -4 1.9 0.8 1.3 5.6 0.8 5.6 -0.6z m-43.1 -4.1 c0 -1.1 -5 -3.3 -6.4 -2.8 -2.4 0.9 -2 3.2 0.7 3.6 2.2 0.4 5.7 -0.1 5.7 -0.8z m4.4 -3 c1.8 -0.7 1.2 -2.4 -1 -2.4 -0.8 0 -1.4 0.7 -1.4 1.5 0 1.7 0.2 1.8 2.4 0.9z m38.9 -0.9 c0.1 -0.5 -0.6 -1.1 -1.5 -1.3 -1.1 -0.2 -1.8 0.3 -1.8 1.3 0 1.7 3 1.8 3.3 0z m-26.9 -4.8 c-0.4 -1 -1.7 -1.7 -3.3 -1.6 -2.6 0 -2.6 0 -0.3 1.1 1.2 0.6 2.2 1.8 2.2 2.7 0 1 0.3 1.2 1 0.5 0.6 -0.6 0.8 -1.8 0.4 -2.7z m14.1 -1.8 c-0.8 -1.2 -3.5 -1.2 -3.5 0 0 1.1 2.2 2 3.3 1.4 0.4 -0.2 0.5 -0.9 0.2 -1.4z" />
        <path d="M88.6 218.3 c-1.1 -1.2 -0.6 -5.1 0.8 -6.2 1.1 -1 1.7 -0.8 2.6 0.6 0.9 1.5 1 1.2 0.5 -1.4 -0.6 -3 0 -3.8 7.4 -11.2 4.5 -4.4 8.1 -8.4 8.1 -8.9 0 -0.5 1.8 -2.1 3.9 -3.5 2.2 -1.5 4.2 -3.5 4.6 -4.7 0.5 -1.6 1.2 -1.9 3.2 -1.4 2.2 0.6 2.4 0.4 1.9 -1.4 -1.1 -3.3 1.2 -3.6 4.3 -0.5 2 2 3 4.2 3.3 7.1 0.4 4.7 0.2 4.9 -2.4 2.6 -1.7 -1.6 -2 -1.5 -5.3 2 -2.8 3 -3.4 4.3 -2.9 6.4 0.4 1.9 0.3 2.3 -0.4 1.3 -0.6 -0.8 -1.7 -1.1 -2.8 -0.7 -1.5 0.6 -1.6 0.9 -0.5 1.6 2.5 1.5 0.5 3.7 -2.9 3.2 -2.7 -0.4 -3.1 -0.8 -2.7 -2.8 0.2 -1.3 0.1 -2.4 -0.4 -2.4 -0.4 0 -1.4 -0.3 -2.3 -0.6 -1.2 -0.4 -1.6 0 -1.6 1.5 0 1.2 0.7 2.4 1.5 2.7 2.3 0.9 1.8 3.3 -1 4.4 -1.4 0.5 -2.5 1.4 -2.5 1.9 0 0.6 -0.8 0.7 -1.7 0.4 -1.2 -0.5 -1.5 -0.2 -1 0.9 1.3 3.5 -9.2 11.6 -11.7 9.1z m14.4 -14.6 c0 -2 -0.1 -2 -1.6 -0.5 -0.9 0.9 -1.3 2.1 -0.9 2.7 1 1.6 2.5 0.3 2.5 -2.2z m13.4 -11.8 c3 -5.9 3.2 -6.9 1.1 -6.9 -0.8 0 -1.5 0.6 -1.5 1.3 0 2.3 -2.9 7.5 -4.5 8.1 -2.1 0.8 -1.9 2.6 0.4 2.6 1.2 0 2.7 -1.7 4.5 -5.1z" />
        <path d="M223.8 216.1 c-0.6 -1 -1.8 -1.7 -2.5 -1.4 -1.2 0.5 -10.3 -7.6 -10.3 -9.1 0 -0.3 1.1 -0.6 2.5 -0.6 3 0 3.2 -1.5 0.5 -3.2 -1.1 -0.7 -2 -1.7 -2 -2.3 0 -1.6 -5.9 -6.5 -6.5 -5.4 -0.6 0.9 0.1 2 3.8 6 0.9 1 1.7 2.5 1.7 3.3 0 2.7 -1.9 2.7 -3.7 0 -3.7 -5.3 -5.2 -6.5 -7.8 -5.8 -2.1 0.5 -2.5 0.3 -2.5 -1.5 0 -1.2 -0.6 -2.1 -1.4 -2.1 -1.5 0 -2.7 -3.3 -1.7 -4.6 0.3 -0.5 1.3 -0.9 2.1 -0.9 0.8 0 1.6 -1 1.8 -2.2 0.4 -2.5 -1.6 -3.1 -3.6 -1.1 -0.9 0.9 -1.2 0 -1.3 -4.2 0 -4 -0.3 -5 -0.9 -3.5 -0.5 1.1 -0.9 1.5 -0.9 0.9 -0.1 -0.5 0.5 -2.2 1.2 -3.7 1.2 -2.7 3.1 -3.5 4.2 -1.7 0.3 0.6 -0.1 1 -0.9 1 -2.5 0 -1.9 2.2 1.9 6.3 2.3 2.6 4.1 3.7 5.1 3.3 1.1 -0.4 1.5 -0.2 1.1 0.8 -0.7 1.8 10.4 13.6 12.8 13.6 0.9 0 1.3 0.5 1 1 -0.4 0.6 2.1 4 5.4 7.7 6.4 6.9 8 11.3 4.1 11.3 -1.1 0 -2.5 -0.9 -3.2 -1.9z m-3.8 -8.6 c-1.6 -1.9 -4.1 -2 -3.4 -0.1 0.5 1.4 3.4 2.6 4.3 1.9 0.2 -0.1 -0.2 -0.9 -0.9 -1.8z m-16.7 -17 c-0.4 -1.5 -3.6 -1.2 -4.1 0.3 -0.3 0.9 0.3 1.3 1.9 1 1.3 -0.1 2.3 -0.7 2.2 -1.3z" />
        <path d="M172 205.9 c0 -3.2 0.6 -3.8 3.1 -3.2 2.2 0.6 2.6 2.3 0.4 2.3 -0.7 0 -1.9 0.8 -2.4 1.8 -0.9 1.5 -1 1.4 -1.1 -0.9z" />
        <path d="M148 203.2 c0 -1.2 0.5 -2.4 1 -2.7 0.6 -0.3 1 -0.1 1 0.5 0 0.7 0.7 1 1.5 0.6 0.9 -0.3 1.5 0 1.5 0.9 0 0.8 -0.4 1.5 -0.9 1.5 -0.5 0 -1.6 0.3 -2.5 0.6 -1.1 0.4 -1.6 0 -1.6 -1.4z" />
        <path d="M182.8 191.6 c-2.3 -1.7 -2.3 -2.6 0 -2.6 1.1 0 1.8 0.7 1.8 2 0 1.1 0 2 -0.1 2 0 0 -0.8 -0.7 -1.7 -1.4z" />
        <path d="M155 188 c-1.2 -0.8 -0.9 -1 1.3 -1 1.5 0 2.7 0.5 2.7 1 0 1.3 -2 1.3 -4 0z" />
        <path d="M127 178.7 c0 -0.8 -0.7 -2 -1.5 -2.7 -1.2 -1 -1.2 -1.5 0.5 -3.3 1.1 -1.1 2 -2.6 2 -3.2 0 -1.1 -4.3 -5.2 -7.6 -7.1 -2.1 -1.2 -3.2 -4.4 -1.5 -4.4 0.5 0 1.6 0.7 2.5 1.5 0.8 0.8 2.2 1.5 3.1 1.5 0.9 0 1.3 0.5 1 1 -0.3 0.6 0.2 1 1.2 1 1.5 0 1.6 0.2 0.3 1 -1.2 0.8 -0.9 1 1.1 1 2.1 0 2.8 0.6 3.2 2.6 0.3 2 -0.1 2.7 -2 3.5 -2.8 1.1 -2.6 3 0.5 4.4 2.2 1 3.1 3.5 1.3 3.5 -0.5 0 -1.6 0.3 -2.5 0.6 -1 0.4 -1.6 0.1 -1.6 -0.9z" />
        <path d="M195.7 170.4 c-0.4 -0.4 -0.4 -1 -0.1 -1.5 0.6 -1 3.4 0 3.4 1.2 0 1 -2.4 1.2 -3.3 0.3z" />
        <path d="M202.6 169.4 c-0.8 -2.1 -0.8 -2.4 0.5 -2.4 0.6 0 2.5 -1 4.2 -2.2 1.8 -1.3 3.3 -2.1 3.5 -2 0.1 0.2 2 -0.3 4.1 -1.2 2.5 -0.9 4.7 -2.9 6.2 -5.3 1.3 -2.1 2.6 -4 3 -4.3 0.3 -0.3 0.9 -2.6 1.3 -5.2 0.4 -2.6 1.4 -5.4 2.2 -6.2 0.8 -0.8 1.4 -2 1.4 -2.6 0 -0.7 0.6 -0.6 1.5 0.4 2.1 2 1.9 3.6 -0.4 3.6 -1.4 0 -1.8 0.5 -1.4 2 0.3 1.1 0.9 2 1.4 2 1.7 0 0.9 2.8 -0.9 3.2 -0.9 0.3 -2.8 2.6 -4.1 5.2 -3.3 6.4 -10.2 12.6 -14 12.6 -2.1 0 -3.2 0.6 -3.6 2 -0.8 2.4 -4 2.7 -4.9 0.4z" />
        <path d="M190 167.6 c0 -1.3 -0.7 -2.9 -1.5 -3.6 -2.5 -2.1 -0.1 -3.5 2.6 -1.6 1.3 0.9 3.8 1.6 5.6 1.6 1.8 0 3.3 0.5 3.3 1 0 0.6 -0.8 1 -1.7 1 -1 0 -3.3 0.9 -5 2 l-3.3 2 0 -2.4z" />
        <path d="M142.3 158.9 c-1.3 -0.5 -2.3 -1.2 -2.3 -1.7 0 -0.5 -0.9 -0.8 -2 -0.8 -3.2 0.2 -2.7 -1.9 0.6 -2.2 2 -0.2 3.6 0.4 4.8 1.7 2.3 2.6 1.8 4.1 -1.1 3z" />
        <path d="M107.7 152.3 c-0.9 -0.9 -0.9 -4.3 0.1 -4.3 1.8 0.1 3.2 1.8 2.6 3.3 -0.6 1.8 -1.6 2.1 -2.7 1z" />
        <path d="M130.6 151.4 c-0.8 -2.1 -0.1 -2.8 1.8 -2.1 0.9 0.4 1.3 1.3 1 2.2 -0.8 2 -2 1.9 -2.8 -0.1z" />
        <path d="M195.6 148.6 c0.3 -0.8 1.2 -1.2 2 -0.9 2.1 0.8 1.7 2.3 -0.6 2.3 -1.3 0 -1.8 -0.5 -1.4 -1.4z" />
        <path d="M102.5 144 c-0.4 -0.6 -1.1 -0.8 -1.6 -0.5 -0.5 0.4 -0.9 -0.3 -0.9 -1.3 0 -1.8 0.3 -1.9 2.5 -0.9 1.3 0.7 2.7 1.8 3 2.5 0.5 1.4 -2.1 1.6 -3 0.2z" />
        <path d="M96.4 136.8 c-1.5 -2.3 -2 -11.9 -0.9 -17.8 0.3 -1.9 0.7 -5.2 0.9 -7.3 0.4 -4.5 1.1 -5.4 3 -3.8 1.1 0.9 1.2 1.8 0.2 4.3 -0.8 2.4 -0.8 3.2 0.2 3.5 1.7 0.6 1.5 2.3 -0.3 2.3 -0.8 0 -1.5 0.7 -1.5 1.5 0 0.8 0.4 1.5 0.9 1.5 0.5 0 1.1 1.3 1.3 2.9 0.3 2.3 0.1 2.7 -1.4 2.3 -1.2 -0.3 -1.8 0.1 -1.8 1.2 0 0.9 0.8 1.6 1.8 1.7 1 0 1.2 0.3 0.5 0.6 -1.9 0.7 -1.6 3.3 0.5 3.4 1 0 1.2 0.3 0.5 0.6 -1.9 0.7 -1.6 2.3 0.5 2.4 1.4 0 1.4 0.2 -0.3 0.9 -2.8 1.2 -3.3 1.2 -4.1 -0.2z" />
        <path d="M224.6 129.5 c-0.3 -0.9 -0.2 -1.3 0.4 -1 3 1.9 -1.8 -8 -5 -10.4 -1.7 -1.2 -3 -3 -3 -4.1 0 -2.4 -2.7 -5.1 -4.5 -4.4 -1 0.4 -1.5 -0.4 -1.7 -2.7 -0.3 -3.5 -1.9 -4.3 -10.9 -5.6 -3.3 -0.4 -3.7 -0.8 -4.2 -4.1 -0.3 -2.1 -0.9 -4.6 -1.3 -5.6 -0.6 -1.6 -0.4 -1.8 0.9 -1.3 1.6 0.6 2.1 -0.2 1.8 -3 -0.1 -0.7 0.2 -1.3 0.7 -1.3 0.5 0 2.2 -2.6 3.7 -5.7 1.6 -3.2 3.5 -6.2 4.2 -6.6 0.8 -0.5 1.1 -1.2 0.8 -1.8 -0.3 -0.5 0.1 -0.6 0.9 -0.3 0.9 0.3 1.6 1.2 1.6 2 0 0.8 0.5 1.4 1 1.4 0.6 0 1 0.8 0.9 1.8 0 1 -0.3 1.2 -0.6 0.5 -0.7 -1.9 -4.3 -1.6 -5 0.5 -0.3 0.9 -1.3 2.5 -2.1 3.5 -1 1.1 -1.1 1.7 -0.4 1.7 0.7 0 1.2 0.5 1.2 1 0 0.6 -0.8 1 -1.7 1 -1.5 0 -1.6 0.2 -0.3 1 1 0.6 1.1 1 0.3 1 -1.8 0 -1.6 2 0.4 4.2 1.4 1.6 1.4 1.8 0.1 1.8 -0.9 0 -2.1 0.6 -2.8 1.4 -0.9 1.2 -0.5 1.7 2.8 2.5 2.2 0.6 4.5 1.8 5.2 2.6 1.4 1.7 4.5 2.1 3.4 0.4 -0.4 -0.8 0.1 -0.9 1.5 -0.4 1.8 0.5 2.4 0.2 2.8 -1.4 0.3 -1.2 0.9 -2.1 1.4 -2.1 1.3 0 1.1 1.4 -0.3 2.8 -0.9 0.9 -0.9 1.2 0 1.2 1.5 0 1.6 2.7 0 3.2 -0.7 0.3 -0.8 1.3 -0.3 3.4 0.8 2.7 0.9 2.7 1.3 0.6 0.2 -1.2 0.7 -2 1.2 -1.7 1.4 0.9 6.2 -1.8 10.4 -5.9 2.1 -2.1 5.1 -4.2 6.5 -4.7 1.4 -0.5 3.5 -2.2 4.5 -3.8 1.1 -1.6 3.2 -3.6 4.7 -4.5 2.9 -1.7 4.7 -5.4 3.2 -6.5 -1.7 -1.1 -2.3 -5.1 -0.7 -5.1 0.9 0 1.1 0.6 0.7 1.8 -0.6 1.4 -0.4 1.5 0.9 0.4 1.1 -0.9 1.8 -1 2.3 -0.2 0.3 0.5 0.1 1 -0.4 1 -1.9 0 -1.2 2.7 1.2 4.3 l2.2 1.6 -2.8 2.6 c-1.5 1.4 -3.5 2.5 -4.2 2.5 -0.8 0 -2.2 1.1 -3.1 2.5 -0.9 1.4 -2.2 2.5 -3 2.5 -0.7 0 -1.8 0.8 -2.3 1.9 -0.6 1 -2.6 2.6 -4.6 3.5 -3.4 1.7 -3.9 2.4 -3.6 5.8 0.1 0.9 -0.3 1.9 -0.8 2.3 -0.7 0.4 -0.8 0 -0.5 -1 0.6 -1.4 0.1 -1.6 -2.7 -1.3 -2.6 0.2 -3.4 0.8 -3.5 2.3 -0.2 4 -0.4 4.3 -2.4 3.8 -1.1 -0.3 -2 -0.3 -2 0 0 1 4.3 8.1 6.7 11.1 1.5 1.7 2.3 3.9 2.1 5.4 -0.4 3 -2.3 4 -3.2 1.7z" />
        <path d="M127.4 113.5 c-0.9 -2.1 -0.4 -2.4 2.9 -1.8 3.2 0.6 3.1 2.6 -0.1 3.1 -1.3 0.2 -2.5 -0.3 -2.8 -1.3z" />
        <path d="M197.8 112.3 c-1.2 -0.3 -1.7 -1.7 -2 -5.2 -0.3 -4.3 -0.1 -4.7 1.4 -3.8 0.9 0.6 1.9 2.8 2.2 5 0.7 4.5 0.7 4.5 -1.6 4z" />
        <path d="M100.7 107.4 c-0.3 -0.4 -0.2 -1.5 0.4 -2.6 0.8 -1.4 0.6 -2.5 -0.6 -4.4 -0.8 -1.3 -1.9 -2.4 -2.3 -2.4 -0.4 0 -1.6 -1.4 -2.6 -3.1 -1.4 -2.4 -2.1 -2.8 -2.7 -1.8 -0.6 1 -0.9 0.8 -0.9 -1 0 -1.7 0.4 -2.2 1.6 -1.7 0.9 0.3 2 0.6 2.5 0.6 0.6 0 0.7 0.5 0.3 1.1 -0.4 0.7 -0.1 1 0.6 0.7 2 -0.6 5.6 3.2 4 4.2 -0.9 0.6 -0.3 1.3 2 2.5 2.5 1.3 3.1 2.1 2.6 3.8 -0.3 1.2 -0.6 2.8 -0.6 3.5 0 1.2 -3.2 1.7 -4.3 0.6z" />
        <path d="M145 106.2 c0 -0.7 -0.7 -1.2 -1.5 -1.2 -2.2 0 -1.9 -2.7 0.4 -4 2.5 -1.3 3.4 -1.3 2.5 0.1 -0.3 0.6 0 1.5 0.7 2 1.2 0.7 1.1 1.1 -0.3 2.6 -1.1 1.1 -1.8 1.3 -1.8 0.5z" />
        <path d="M86 102.9 c0 -1.8 -1 -2.3 -3.8 -2 -1.1 0.2 -3.7 -4.7 -2.9 -5.6 0.8 -0.8 5.8 1.7 6.4 3.3 0.3 0.8 1.6 2 2.9 2.5 3.2 1.2 3.1 3.7 -0.1 3.7 -1.8 0 -2.5 -0.6 -2.5 -1.9z" />
        <path d="M109 101.2 c0 -2.5 2.5 -5.2 4.8 -5.2 0.9 0 2.6 0.7 3.6 1.5 1.9 1.4 1.9 1.5 0.2 1.5 -1 0 -3.4 0.9 -5.2 2.1 -3.4 2.1 -3.4 2.1 -3.4 0.1z" />
        <path d="M123 100 c0 -0.5 0.7 -1 1.5 -1 0.8 0 1.5 0.5 1.5 1 0 0.6 -0.7 1 -1.5 1 -0.8 0 -1.5 -0.4 -1.5 -1z" />
        <path d="M130.3 99.6 c0.3 -0.8 0.1 -1.7 -0.6 -2 -0.7 -0.3 -0.6 -0.5 0.4 -0.5 1.6 -0.1 3.9 1.7 3.9 3.1 0 0.4 -0.9 0.8 -2.1 0.8 -1.4 0 -1.9 -0.5 -1.6 -1.4z" />
        <path d="M155.2 97.2 c-1.5 -1 -0.7 -3.8 1.4 -4.6 1.6 -0.6 1.9 0.9 0.4 1.9 -0.5 0.3 -0.7 1.2 -0.3 2 0.6 1.7 0.3 1.8 -1.5 0.7z" />
        <path d="M74.7 93.5 c-1.4 -0.7 -4 -2.8 -5.7 -4.5 -1.8 -1.8 -3.7 -2.9 -4.6 -2.6 -1.9 0.7 -1.9 -2.8 0.2 -4.5 0.8 -0.7 2.4 -2.9 3.4 -4.8 1 -2 3 -4.6 4.4 -5.8 l2.6 -2.3 0 2.9 c0 2.6 0.5 3 4.8 4.1 2.6 0.7 4.1 1.5 3.5 1.7 -1.6 0.6 -1.7 3.3 -0.3 3.3 1.2 0 6 4.9 6 6 0 0.4 -1 0.7 -2.2 0.6 -1.5 -0.1 -2.8 -1.2 -3.8 -3.3 -0.8 -1.8 -2.1 -3.1 -2.9 -3 -0.8 0.1 -2.1 -1.1 -3 -2.7 -0.9 -1.6 -2.1 -2.7 -2.6 -2.6 -5.2 1.3 -7.6 3.7 -5.4 5.1 1.1 0.7 1.1 0.9 0.1 0.9 -2.2 0 -0.7 2.4 1.9 3 1.3 0.3 2.4 1.2 2.4 1.9 0 0.7 1.3 2.5 2.8 4.1 3.2 3.2 2.4 4.6 -1.6 2.5z" />
        <path d="M106.8 92 c-1 -0.9 -1.8 -2.1 -1.8 -2.7 0 -1.5 4.9 -1.1 5.5 0.4 0.5 1.4 3.5 0.6 4.7 -1.1 2 -2.9 -0.8 -9.6 -3.3 -8.1 -0.5 0.4 -0.9 -0.5 -0.9 -1.8 0 -1.4 -0.7 -2.7 -1.5 -3.1 -0.8 -0.3 -1.5 -1.4 -1.5 -2.5 0 -2.6 3.4 -3.3 4.8 -1 1 1.5 0.9 1.7 -0.3 1.3 -0.9 -0.4 -1.5 0 -1.5 0.9 0 0.8 0.6 1.7 1.4 2 0.7 0.3 2.4 2.7 3.6 5.3 2 4 2.2 5.1 1.2 7.7 -0.8 2 -0.8 3.3 -0.2 3.7 0.6 0.3 -1.1 0.6 -3.7 0.7 -3.2 0 -5.4 -0.5 -6.5 -1.7z" />
        <path d="M223.1 93.1 c-2 -0.5 -2.2 -0.8 -0.9 -1.9 1.8 -1.5 4.8 -0.6 4.8 1.4 0 1.5 -0.3 1.5 -3.9 0.5z" />
        <path d="M159 91.6 c0 -0.8 5 -5.6 5.9 -5.6 0.5 0 1.6 -0.8 2.3 -1.7 0.7 -1 2.2 -2 3.3 -2.2 2.8 -0.4 5.6 -2.1 5.1 -2.9 -0.8 -1.4 7.3 0 8.5 1.4 0.9 1.1 0.7 1.4 -1.4 1.4 -5.4 0 -17.2 4.7 -19.9 7.9 -1.5 1.8 -3.8 2.8 -3.8 1.7z" />
        <path d="M230 90 c0 -0.5 -0.9 -1 -2 -1 -2.4 0 -2.5 -0.4 -0.4 -3.6 l1.7 -2.5 1.9 2.1 c1.5 1.6 1.6 2.4 0.8 4 -1.2 2.2 -2 2.6 -2 1z" />
        <path d="M214.2 87.3 c-1.1 -1.1 -1 -1.9 0.8 -4.8 1.2 -1.9 3.1 -4.1 4.2 -4.9 2.5 -1.8 11.8 -14.6 11.8 -16.3 0 -0.8 1.1 -1.3 2.8 -1.2 1.5 0 2.1 0.3 1.5 0.6 -2 0.7 -1.5 1.9 1.2 3.1 1.6 0.8 2.3 1.7 1.9 2.7 -0.6 1.4 -0.9 1.3 -2.1 -0.5 -2.4 -3.4 -3.8 -2.1 -4.6 4 -0.1 0.8 -1.3 3 -2.6 4.7 -2 2.6 -2.9 3.1 -5 2.7 -1.7 -0.4 -2.2 -0.3 -1.3 0.3 2.2 1.6 0.3 4.4 -2.4 3.7 -2.3 -0.6 -3 0.2 -2.5 2.9 0.1 0.4 -0.4 1.6 -1.1 2.6 -1.1 1.6 -1.5 1.6 -2.6 0.4z" />
        <path d="M102.1 84.8 c-0.1 -2.8 2.1 -3.9 3.4 -1.8 0.3 0.6 -0.1 1 -0.9 1 -0.8 0 -1.7 0.8 -1.9 1.8 -0.3 1 -0.5 0.6 -0.6 -1z" />
        <path d="M187.2 83.9 c-1 -1.5 -0.9 -1.9 0.2 -1.9 2.1 0 4 2.6 2.3 3.3 -0.7 0.3 -1.9 -0.4 -2.5 -1.4z" />
        <path d="M232.2 81.9 c0.2 -0.7 1 -1.5 1.7 -1.7 0.8 -0.3 1.2 0.1 0.9 0.9 -0.2 0.7 -1 1.5 -1.7 1.7 -0.8 0.3 -1.2 -0.1 -0.9 -0.9z" />
        <path d="M96 79.5 c-1.4 -3.8 -6.1 -7.9 -7.2 -6.3 -0.5 0.9 -0.8 0.7 -0.8 -0.8 0 -2.1 -3.2 -5.8 -4.2 -4.9 -0.3 0.3 -0.9 -0.6 -1.2 -2.1 -0.5 -2 -0.2 -3.2 1.1 -4.5 1.6 -1.6 2 -1.6 3.8 -0.3 1.6 1.2 1.7 1.6 0.6 2.3 -2 1.2 -0.4 5 2.4 5.7 1.3 0.3 2.2 1.1 1.9 1.8 -0.6 1.5 4.1 6 5.3 5.3 0.9 -0.6 4.8 3.2 4.1 3.8 -0.2 0.1 -1.3 0.8 -2.6 1.4 -2 1.1 -2.3 0.9 -3.2 -1.4z" />
        <path d="M241 81.1 c0 -0.6 -1.1 -1.1 -2.5 -1.1 -3.2 0 -3.2 -1.3 0.1 -4.4 1.8 -1.6 2.5 -3.1 2.1 -4.5 -0.4 -1.8 -0.2 -1.9 1.4 -1 2.3 1.2 2.5 3.7 0.4 4.5 -1.7 0.7 -2.1 3.4 -0.5 3.4 0.6 0 1 0.6 1 1.4 0 0.8 -0.4 1.8 -1 2.1 -0.5 0.3 -1 0.1 -1 -0.4z" />
        <path d="M104.7 72.3 c-0.4 -0.3 -0.7 -1.4 -0.7 -2.4 0 -1 -1.2 -2.1 -3.1 -2.8 -1.7 -0.6 -2.8 -1.5 -2.4 -2.1 0.3 -0.6 0 -2.4 -0.9 -4.1 -0.8 -1.6 -1.2 -3.7 -0.9 -4.5 0.8 -2.2 3.6 -1.3 3.8 1.2 0.1 1.1 1.2 3.5 2.4 5.2 2.9 4.1 4.4 12.1 1.8 9.5z" />
        <path d="M210.8 69.1 c1.2 -1.1 2.2 -2.9 2.2 -4.1 0 -1.2 1 -3.5 2.3 -5 1.2 -1.5 2.8 -3.7 3.6 -4.8 0.8 -1.2 1.8 -1.9 2.3 -1.6 0.4 0.3 0.8 -0.2 0.8 -1 0 -0.9 0.7 -1.6 1.5 -1.6 1.3 0 1.2 0.4 -0.4 2.2 -2 2 -2 3.8 0 3.8 0.5 0 0.8 -0.6 0.7 -1.2 -0.2 -0.8 0.7 -1.3 2.2 -1.3 1.6 0 2.6 0.6 2.8 1.7 0.3 1.4 -0.3 1.8 -2.6 1.8 -1.6 0 -3.2 0.3 -3.6 0.8 -0.4 0.4 -1.8 0.7 -2.9 0.7 -1.7 0 -2.2 0.6 -2.3 2.8 -0.1 3 -4.9 8.6 -7.4 8.6 -1.1 0 -0.9 -0.5 0.8 -1.8z" />
        <path d="M90.5 58.5 c-2.7 -2.2 -2.7 -2.5 -1 -3.1 1 -0.4 2.7 -1.6 3.7 -2.6 2.7 -2.7 4.5 -2.2 1.8 0.6 -1.5 1.7 -2.1 3.3 -1.8 5 0.3 1.5 0.4 2.6 0.3 2.6 -0.1 0 -1.5 -1.1 -3 -2.5z" />
      </g>
      <g fill="#3a3b3f">
        <path d="M185.2 155.4 c-0.7 -1.4 -1.7 -2.2 -2.2 -1.9 -0.6 0.4 -1 -0.9 -1 -3.2 l0 -3.7 2.2 2.2 c1.4 1.3 2.3 3.5 2.4 5.7 0 1.9 0 3.5 -0.1 3.5 -0.1 0 -0.7 -1.2 -1.3 -2.6z" />
        <path d="M0 1 c0 -0.7 72.5 -1 215.5 -1 143 0 215.5 0.3 215.5 1 0 0.7 -72.5 1 -215.5 1 -143 0 -215.5 -0.3 -215.5 -1z" />
      </g>
    </svg>